<?xml version="1.0" encoding="utf-8"?>
<!-- Generator: Adobe Illustrator 25.4.1, SVG Export Plug-In . SVG Version: 6.00 Build 0)  -->
<svg version="1.1" id="Layer_1" xmlns="http://www.w3.org/2000/svg" xmlns:xlink="http://www.w3.org/1999/xlink" x="0px" y="0px"
	 viewBox="0 0 500 199.9" style="enable-background:new 0 0 500 199.9;" xml:space="preserve">
<style type="text/css">
	.st0{fill:#FFFFFF;}
</style>
<g>
	<g transform="translate(6.829362, 46.672906)">
		<g>
			<path class="st0" d="M2.9-16.1h0.3l7.3-20.2h-0.3L2.9-16.1z"/>
		</g>
	</g>
</g>
<g>
	<g transform="translate(15.977648, 46.672906)">
		<g>
			<path class="st0" d="M5.9-16.1h0.3l7.3-20.2h-0.3L5.9-16.1z"/>
		</g>
	</g>
</g>
<g>
	<g transform="translate(25.125934, 46.672906)">
	</g>
</g>
<g>
	<g transform="translate(32.71339, 46.672906)">
		<g>
			<path class="st0" d="M11.7-16c0-0.5,0.3-1,0.7-1c0.8,0,1.7,1,3.4,1c3.6,0,4.6-2.8,4.6-6.7v-11.7c0-1.1,0.6-1.2,1-1.2h0.9v-0.2
				h-5.2v0.2H18c0.4,0,1,0.2,1,1.2v13.3c0,2.6-0.9,4.8-3.2,4.8c-2.3,0-4-1.9-4-5.4v-4.5h-0.3V-16H11.7z"/>
		</g>
	</g>
</g>
<g>
	<g transform="translate(43.86011, 46.672906)">
		<g>
			<path class="st0" d="M15-16.4h5.1v-0.2h-0.9c-0.4,0-1-0.2-1-1.2v-6.4c0.1-1.2,1.1-3.8,3-3.8c1.8,0,2.5,1.8,1.7,3.9l-1.4,4h0.2
				l2.9-8.2h-0.2c0,0-0.1,0.4-0.8,0.4c-1.2,0-1.3-0.4-2.4-0.4c-1.5,0-2.5,1.3-3,2.9v-2.9H18c0,0.6-0.7,1.3-2.1,1.3v0.2
				c1,0,1,0.7,1,1.1v7.8c0,1.1-0.6,1.2-1,1.2H15V-16.4z"/>
		</g>
	</g>
</g>
<g>
	<g transform="translate(53.898207, 46.672906)">
	</g>
</g>
<g>
	<g transform="translate(61.485666, 46.672906)">
		<g>
			<path class="st0" d="M27.3-16.1c2.7,0,4-1,4.7-1.9c0,0.7,0.3,1.5,1.2,1.5h1.5v-0.2c-1.1,0-1.4-0.5-1.4-1.8v-17.8H33
				c0,0.6-0.7,1.3-2.1,1.3v0.2c1,0,1,0.7,1,1.1v7c-0.7-0.9-2-1.8-4.4-1.8c-3.9,0-6.1,2.8-6.1,6.1S23.8-16.1,27.3-16.1z M22.8-22.3
				c0-3.2,2.4-5.8,5.2-5.8c0.6,0,2.7,0.1,3.9,1.8l0,8c-1.1,1.7-3.2,1.8-3.9,1.8C25.2-16.4,22.8-19,22.8-22.3z"/>
		</g>
	</g>
</g>
<g>
	<g transform="translate(74.835038, 46.672906)">
		<g>
			<path class="st0" d="M32.1-16.1c3.7,0,6.2-2.5,6.2-6.2H38C38-19,36-17,33-17c-3.7,0-6.1-2.7-6.1-6.1c0-0.4,0-0.7,0.1-1h10.4
				c0,0-0.2-4.3-5.3-4.3c-3.7,0-6.2,2.5-6.2,6.2S28.4-16.1,32.1-16.1z M27-24.3c0.5-2.2,2.4-3.8,4.7-3.8c2.2,0,4.2,1.6,4.3,3.8H27z"
				/>
		</g>
	</g>
</g>
<g>
	<g transform="translate(87.134134, 46.672906)">
		<g>
			<path class="st0" d="M29-27.8c1,0,1.7,1.8,2.1,3.3c0.4,1.6,2.3,8.4,2.3,8.4h0.1c0.6-2.4,1.3-5.1,2.1-7.5c0.1-0.4,0.2-0.7,0.3-0.9
				c0.5-1.5,1-3.3,2-3.3h0.4V-28h-3.4v0.2h0.4c1,0,0.7,1.8,0.3,3.2c-0.1,0.2-0.1,0.5-0.2,0.9c-0.4,1.6-1.1,4-1.3,4.7
				c-0.2-0.9-1.1-4.1-1.5-5.5c-0.2-0.5-0.3-1.2-0.3-1.8c-0.1-1,0-1.5,0.7-1.5h0.4V-28h-4.5v0.2H29z"/>
		</g>
	</g>
</g>
<g>
	<g transform="translate(96.194892, 46.672906)">
		<g>
			<path class="st0" d="M39.2-16.1c3.7,0,6.2-2.5,6.2-6.2h-0.2c0,3.2-2.1,5.2-5,5.2c-3.7,0-6.1-2.7-6.1-6.1c0-0.4,0-0.7,0.1-1h10.4
				c0,0-0.2-4.3-5.3-4.3c-3.7,0-6.2,2.5-6.2,6.2S35.5-16.1,39.2-16.1z M34.1-24.3c0.5-2.2,2.4-3.8,4.7-3.8c2.2,0,4.2,1.6,4.3,3.8
				H34.1z"/>
		</g>
	</g>
</g>
<g>
	<g transform="translate(108.493983, 46.672906)">
		<g>
			<path class="st0" d="M36.6-16.7v0.2h5.1v-0.2h-0.9c-0.4,0-1-0.2-1-1.2v-18.4h-0.2c0,0.6-0.7,1.3-2.1,1.3v0.2c1,0,1,0.7,1,1.1
				v15.7c0,1.1-0.6,1.2-1,1.2H36.6z"/>
		</g>
	</g>
</g>
<g>
	<g transform="translate(115.220799, 46.672906)">
		<g>
			<path class="st0" d="M45.5-16.1c3.4,0,6.2-2.8,6.2-6.2s-2.8-6.2-6.2-6.2s-6.2,2.8-6.2,6.2S42.1-16.1,45.5-16.1z M40.2-23.6
				c0-2.2,1.7-3.9,4.2-3.9c3.8,0,6.4,3.2,6.4,6.7c0,2.2-1.7,3.9-4.2,3.9C42.7-16.9,40.2-20.1,40.2-23.6z"/>
		</g>
	</g>
</g>
<g>
	<g transform="translate(128.395118, 46.672906)">
		<g>
			<path class="st0" d="M43.2-8.1v0.2h5.1v-0.2h-0.9c-0.4,0-1-0.2-1-1.2v-8.8c0.6,1,1.9,2.1,4.8,2.1c3.5,0,5.8-2.9,5.8-6.2
				s-2.2-6.1-6.1-6.1c-2.6,0-3.9,1.1-4.5,2v-2h-0.2c0,0.6-0.7,1.3-2.1,1.3v0.2c1,0,1,0.7,1,1.1v16.3c0,1.1-0.6,1.2-1,1.2H43.2z
				 M46.4-18.5V-26c1.1-1.9,3.4-2,4-2c2.9,0,5.2,2.5,5.2,5.8c0,3.2-2.4,5.8-5.2,5.8C49.8-16.4,47.5-16.6,46.4-18.5z M45.8-20.7
				L45.8-20.7C45.8-20.6,45.8-20.6,45.8-20.7z"/>
		</g>
	</g>
</g>
<g>
	<g transform="translate(142.240445, 46.672906)">
		<g>
			<path class="st0" d="M54.6-16.1c3.7,0,6.2-2.5,6.2-6.2h-0.2c0,3.2-2.1,5.2-5,5.2c-3.7,0-6.1-2.7-6.1-6.1c0-0.4,0-0.7,0.1-1h10.4
				c0,0-0.2-4.3-5.3-4.3c-3.7,0-6.2,2.5-6.2,6.2S50.9-16.1,54.6-16.1z M49.5-24.3c0.5-2.2,2.4-3.8,4.7-3.8c2.2,0,4.2,1.6,4.3,3.8
				H49.5z"/>
		</g>
	</g>
</g>
<g>
	<g transform="translate(154.539535, 46.672906)">
		<g>
			<path class="st0" d="M51.9-16.4H57v-0.2h-0.9c-0.4,0-1-0.2-1-1.2v-6.4c0.1-1.2,1.1-3.8,3-3.8c1.8,0,2.5,1.8,1.7,3.9l-1.4,4h0.2
				l2.9-8.2h-0.2c0,0-0.1,0.4-0.8,0.4c-1.2,0-1.3-0.4-2.4-0.4c-1.5,0-2.5,1.3-3,2.9v-2.9h-0.2c0,0.6-0.7,1.3-2.1,1.3v0.2
				c1,0,1,0.7,1,1.1v7.8c0,1.1-0.6,1.2-1,1.2h-0.9V-16.4z"/>
		</g>
	</g>
</g>
<g>
	<g transform="translate(164.577627, 46.672906)">
	</g>
</g>
<g>
	<g transform="translate(172.16508, 46.672906)">
		<g>
			<path class="st0" d="M58-16.1h0.3l7.3-20.2h-0.3L58-16.1z"/>
		</g>
	</g>
</g>
<g>
	<g transform="translate(181.313363, 46.672906)">
	</g>
</g>
<g>
	<g transform="translate(188.900816, 46.672906)">
		<g>
			<path class="st0" d="M63.6-35.9v0.2h0.9c0.4,0,1,0.2,1,1.2v16.5c0,1.1-0.6,1.2-1,1.2h-0.9v0.2h10.9c0.5,0,0.6,0.2,0.5,0.4h0.2
				l1.3-7.7h-0.2c-0.3,1.4-1,7-5.7,7h-3.8v-17.8c0-1.1,0.6-1.2,1-1.2h0.9v-0.2H63.6z"/>
		</g>
	</g>
</g>
<g>
	<g transform="translate(201.695877, 46.672906)">
		<g>
			<path class="st0" d="M67.6-16.7v0.2h5.1v-0.2h-0.9c-0.4,0-1-0.2-1-1.2v-10.5h-0.2c0,0.6-0.7,1.3-2.1,1.3v0.2c1,0,1,0.7,1,1.1v7.8
				c0,1.1-0.6,1.2-1,1.2H67.6z M70.2-29.1c0.5,0,1-0.4,1-1c0-0.5-0.4-1-1-1c-0.5,0-1,0.4-1,1C69.2-29.6,69.6-29.1,70.2-29.1z"/>
		</g>
	</g>
</g>
<g>
	<g transform="translate(208.422704, 46.672906)">
		<g>
			<path class="st0" d="M69.9-16.7v0.2H75v-0.2h-0.9c-0.4,0-1-0.2-1-1.2v-9.8h1.8V-28h-1.8v-1.4c0-2.6-0.6-3-0.6-4
				c0-1.3,1.1-2.7,3.3-2.7c2.1,0,3.1,1.8,2,5.1l-0.6,1.7h0.2l2.5-6.9h-0.3c-0.3,0.8-0.5,1-0.7,1c-0.5,0-1.3-1-3.2-1
				c-3.3,0-4,2.8-4,4.7v3.6H70v0.2h1.8v9.8c0,1.1-0.6,1.2-1,1.2H69.9z"/>
		</g>
	</g>
</g>
<g>
	<g transform="translate(218.723373, 46.672906)">
		<g>
			<path class="st0" d="M80-16.1c3.7,0,6.2-2.5,6.2-6.2H86c0,3.2-2.1,5.2-5,5.2c-3.7,0-6.1-2.7-6.1-6.1c0-0.4,0-0.7,0.1-1h10.4
				c0,0-0.2-4.3-5.3-4.3c-3.7,0-6.2,2.5-6.2,6.2S76.4-16.1,80-16.1z M75-24.3c0.5-2.2,2.4-3.8,4.7-3.8c2.2,0,4.2,1.6,4.3,3.8H75z"/>
		</g>
	</g>
</g>
<g>
	<g transform="translate(231.022464, 46.672906)">
		<g>
			<path class="st0" d="M77.4-16.7v0.2h5.1v-0.2h-0.9c-0.4,0-1-0.2-1-1.2v-18.4h-0.2c0,0.6-0.7,1.3-2.1,1.3v0.2c1,0,1,0.7,1,1.1
				v15.7c0,1.1-0.6,1.2-1,1.2H77.4z"/>
		</g>
	</g>
</g>
<g>
	<g transform="translate(237.749291, 46.672906)">
		<g>
			<path class="st0" d="M86.4-16.1c3.4,0,6.2-2.8,6.2-6.2s-2.8-6.2-6.2-6.2s-6.2,2.8-6.2,6.2S83-16.1,86.4-16.1z M81.1-23.6
				c0-2.2,1.7-3.9,4.2-3.9c3.8,0,6.4,3.2,6.4,6.7c0,2.2-1.7,3.9-4.2,3.9C83.6-16.9,81.1-20.1,81.1-23.6z"/>
		</g>
	</g>
</g>
<g>
	<g transform="translate(250.92361, 46.672906)">
		<g>
			<path class="st0" d="M84-16.4h5.1v-0.2h-0.9c-0.4,0-1-0.2-1-1.2v-6.4c0.1-1.2,1.2-3.8,3.4-3.8c0.9,0,1.2,0.9,1.2,1.8v8.4
				c0,1.1-0.6,1.2-1,1.2h-0.9v0.2H95v-0.2h-0.9c-0.4,0-1-0.2-1-1.2v-7.7c0-2.1-1-2.8-2.5-2.8c-1.6,0-2.8,1.3-3.4,2.9v-2.9H87
				c0,0.6-0.7,1.3-2.1,1.3v0.2c1,0,1,0.7,1,1.1v7.8c0,1.1-0.6,1.2-1,1.2H84V-16.4z"/>
		</g>
	</g>
</g>
<g>
	<g transform="translate(262.070324, 46.672906)">
		<g>
			<path class="st0" d="M86.7-10.8c0,1.7,1.9,3,4.6,3c5.2,0,9.3-3.9,9.3-6.8c0-2.5-2.4-2.9-4.8-2.9c-1.4,0-2.8,0.1-3.8,0.1
				c-0.9,0-1.4-0.1-1.4-0.5c0-1,2.5-1.3,3.1-1.3c3.3,0,5.5-1.8,5.5-4.5c0-1.8-0.9-3.1-2.5-3.9h3.3V-28h-3.6c-0.3,0-0.4,0-0.6-0.1
				c-0.7-0.2-1.4-0.3-2.2-0.3c-3.3,0-5.5,1.8-5.5,4.5c0,2.5,1.9,4.3,4.8,4.5c-1.9,0-3,1-3,1.8c0,1.1,1.5,1.3,3.4,1.3
				C89.7-15.4,86.7-13.5,86.7-10.8z M88-11.2c0-2.8,2.7-4.5,6.5-5.2c2.4,0,5.4-0.1,5.4,2.1c0,3.7-5,5.8-7.8,5.8
				C89.7-8.4,88-9.5,88-11.2z M93.8-28.2c2.2,0,4.1,1.7,4.1,4.3c0,2.6-2,4.3-4.1,4.3c-2.2,0-4.1-1.7-4.1-4.3
				C89.6-26.4,91.6-28.2,93.8-28.2z"/>
		</g>
	</g>
</g>
<g>
	<g transform="translate(274.121451, 46.672906)">
	</g>
</g>
<g>
	<g transform="translate(281.708904, 46.672906)">
		<g>
			<path class="st0" d="M105.3-36.1c3,0,6,1.4,4.9,5l-3.9,10.9h0.2l5.8-16.2h-0.2c-0.3,0.4-0.8,0.8-1.5,0.8c-1.7,0-3.1-0.8-5.7-0.8
				c-6.3,0-9.9,4.5-9.9,10.1c0,5.6,3.6,10.1,9.9,10.1c6.3,0,9.9-4.5,9.9-10.1h-0.2c0,5.6-3.8,9.9-9.3,9.9
				C93.7-16.3,93.5-36.1,105.3-36.1z"/>
		</g>
	</g>
</g>
<g>
	<g transform="translate(300.309632, 46.672906)">
		<g>
			<path class="st0" d="M100.5-16.4h5.1v-0.2h-0.9c-0.4,0-1-0.2-1-1.2v-6.4c0.1-1.2,1.1-3.8,3-3.8c1.8,0,2.5,1.8,1.7,3.9l-1.4,4h0.2
				l2.9-8.2H110c0,0-0.1,0.4-0.8,0.4c-1.2,0-1.3-0.4-2.4-0.4c-1.5,0-2.5,1.3-3,2.9v-2.9h-0.2c0,0.6-0.7,1.3-2.1,1.3v0.2
				c1,0,1,0.7,1,1.1v7.8c0,1.1-0.6,1.2-1,1.2h-0.9V-16.4z"/>
		</g>
	</g>
</g>
<g>
	<g transform="translate(310.347735, 46.672906)">
		<g>
			<path class="st0" d="M110.6-16.1c3.7,0,6.2-2.5,6.2-6.2h-0.2c0,3.2-2.1,5.2-5,5.2c-3.7,0-6.1-2.7-6.1-6.1c0-0.4,0-0.7,0.1-1h10.4
				c0,0-0.2-4.3-5.3-4.3c-3.7,0-6.2,2.5-6.2,6.2S106.9-16.1,110.6-16.1z M105.5-24.3c0.5-2.2,2.4-3.8,4.7-3.8c2.2,0,4.2,1.6,4.3,3.8
				H105.5z"/>
		</g>
	</g>
</g>
<g>
	<g transform="translate(322.646826, 46.672906)">
		<g>
			<path class="st0" d="M113.9-16.1c1.8,0,3.3-0.8,4.2-1.9v0.1c0,0.7,0.3,1.5,1.2,1.5h1.5v-0.2c-1.1,0-1.4-0.5-1.4-1.8v-5
				c0-2.8-1.7-4.9-5.2-4.9c-1.5,0-2.7,0.4-3.6,1.3c0.6,0.3,1.1,0.7,1.6,1.2c-2.2,0.7-3.5,2.6-3.5,4.8
				C108.5-18.3,110.6-16.1,113.9-16.1z M112.3-25.6c1.2,1.2,1.9,2.7,1.9,4.5c0,1.4-0.9,2.2-1.2,2.3c0,0,0.1,0.1,0.2,0.1
				c0.9,0,1.6-0.9,1.6-2.3c0-2.2-1.3-3.6-2.2-4.6c0.4-0.2,0.9-0.2,1.4-0.2c2.4,0,3.6,1,4.1,1.9v5.6c-0.9,1.3-2.6,2.1-4.1,2.1
				c-2.5,0-4.2-2.1-4.2-4.8C109.7-23.1,110.7-24.9,112.3-25.6z M114.2-28.2c2.4,0,3.8,1.8,3.8,3.7c-0.9-1-2.3-1.7-4.1-1.7
				c-0.6,0-1.1,0.1-1.7,0.2c-0.4-0.4-0.4-0.7-0.4-0.9C111.8-27.6,112.5-28.2,114.2-28.2z"/>
		</g>
	</g>
</g>
<g>
	<g transform="translate(335.120975, 46.672906)">
		<g>
			<path class="st0" d="M113.7-27.8v8.4c0,1.4,0.4,3.3,2.1,3.3c0.4,0,0.5-0.1,0.6-0.1v-0.2c-0.1,0.1-0.3,0.1-0.4,0.1
				c-1,0-1-1.3-1-2.3v-9.2h1.7V-28H115v-4h-0.2c0,1.3,0,4-2,4v0.2H113.7z"/>
		</g>
	</g>
</g>
<g>
	<g transform="translate(341.716508, 46.672906)">
		<g>
			<path class="st0" d="M114.3-16.7v0.2h5.1v-0.2h-0.9c-0.4,0-1-0.2-1-1.2v-10.5h-0.2c0,0.6-0.7,1.3-2.1,1.3v0.2c1,0,1,0.7,1,1.1
				v7.8c0,1.1-0.6,1.2-1,1.2H114.3z M116.8-29.1c0.5,0,1-0.4,1-1c0-0.5-0.4-1-1-1c-0.5,0-1,0.4-1,1
				C115.9-29.6,116.3-29.1,116.8-29.1z"/>
		</g>
	</g>
</g>
<g>
	<g transform="translate(348.443335, 46.672906)">
		<g>
			<path class="st0" d="M116.1-27.8c1,0,1.7,1.8,2.1,3.3c0.4,1.6,2.3,8.4,2.3,8.4h0.1c0.6-2.4,1.3-5.1,2.1-7.5
				c0.1-0.4,0.2-0.7,0.3-0.9c0.5-1.5,1-3.3,2-3.3h0.4V-28h-3.4v0.2h0.4c1,0,0.7,1.8,0.3,3.2c-0.1,0.2-0.1,0.5-0.2,0.9
				c-0.4,1.6-1.1,4-1.3,4.7c-0.2-0.9-1.1-4.1-1.5-5.5c-0.2-0.5-0.3-1.2-0.3-1.8c-0.1-1,0-1.5,0.7-1.5h0.4V-28h-4.5v0.2H116.1z"/>
		</g>
	</g>
</g>
<g>
	<g transform="translate(357.504099, 46.672906)">
		<g>
			<path class="st0" d="M126.3-16.1c3.7,0,6.2-2.5,6.2-6.2h-0.2c0,3.2-2.1,5.2-5,5.2c-3.7,0-6.1-2.7-6.1-6.1c0-0.4,0-0.7,0.1-1h10.4
				c0,0-0.2-4.3-5.3-4.3c-3.7,0-6.2,2.5-6.2,6.2S122.6-16.1,126.3-16.1z M121.3-24.3c0.5-2.2,2.4-3.8,4.7-3.8c2.2,0,4.2,1.6,4.3,3.8
				H121.3z"/>
		</g>
	</g>
</g>
<g>
	<g transform="translate(6.829362, 86.429614)">
		<g>
			<path class="st0" d="M2.9-2.8h0.3L10.4-23h-0.3L2.9-2.8z"/>
		</g>
	</g>
</g>
<g>
	<g transform="translate(15.977648, 86.429614)">
		<g>
			<path class="st0" d="M5.9-2.8h0.3L13.4-23h-0.3L5.9-2.8z"/>
		</g>
	</g>
</g>
<g>
	<g transform="translate(25.125934, 86.429614)">
	</g>
</g>
<g>
	<g transform="translate(32.71339, 86.429614)">
		<g>
			<path class="st0" d="M11.5-22.7v0.2h0.9c0.4,0,1,0.2,1,1.2v16.5c0,1.1-0.6,1.2-1,1.2h-0.9v0.2h5.2v-0.2h-0.9c-0.4,0-1-0.2-1-1.2
				v-10.8h0.7c1.9,0,2.7,1.2,2.7,3v2.9h0.2v-8.2h-0.2c0,1.1-0.1,2.1-1.8,2.1h-1.5v-6.7h4.6c2.1,0,4.1,1,3,4.7l-1.8,4.9h0.3L24.5-23
				h-0.2c-0.3,0.4-0.8,0.4-1.6,0.4H11.5z"/>
		</g>
	</g>
</g>
<g>
	<g transform="translate(45.391755, 86.429614)">
		<g>
			<path class="st0" d="M16.3-13.6c1,0,1,0.7,1,1.1v6.9c0,2.1,1,2.8,2.5,2.8c1.6,0,2.8-1.6,3.4-3.3v3.3h0.2C24.1-4,25.1-4,25.7-4
				v-0.2h-0.5c-0.4,0-0.6-0.2-0.6-1.2v-9.7h-0.2c0,0.6-0.7,1.3-2.1,1.3v0.2c1,0,1,0.7,1,1.1v5.2c-0.1,1.2-1.2,4.2-3.4,4.2
				c-0.9,0-1.2-0.9-1.2-1.8v-10.3h-0.2c0,0.6-0.7,1.3-2.1,1.3V-13.6z"/>
		</g>
	</g>
</g>
<g>
	<g transform="translate(56.49471, 86.429614)">
		<g>
			<path class="st0" d="M19.2-3.2h5.1v-0.2h-0.9c-0.4,0-1-0.2-1-1.2v-6.4c0.1-1.2,1.2-3.8,3.4-3.8c0.9,0,1.2,0.9,1.2,1.8v8.4
				c0,1.1-0.6,1.2-1,1.2h-0.9v0.2h5.1v-0.2h-0.9c-0.4,0-1-0.2-1-1.2v-7.7c0-2.1-1-2.8-2.5-2.8c-1.6,0-2.8,1.3-3.4,2.9v-2.9h-0.2
				c0,0.6-0.7,1.3-2.1,1.3v0.2c1,0,1,0.7,1,1.1v7.8c0,1.1-0.6,1.2-1,1.2h-0.9V-3.2z"/>
		</g>
	</g>
</g>
<g>
	<g transform="translate(67.641429, 86.429614)">
		<g>
			<path class="st0" d="M23.5-9c0,3.7,2.5,6.2,6.2,6.2c3.7,0,6.2-2.5,6.2-6.2h-0.2c0,3.2-2.1,5.2-5,5.2c-3.7,0-6.1-2.7-6.1-6.1
				c0-2.8,2.4-5.1,5.2-5.1c3.6,0,4.3,2,3.8,3.5l-1.6,4.5h0.2l2.9-8.2h-0.2c0,0-0.4,0.4-1.2,0.4c-1.2,0-1.8-0.4-4-0.4
				C26-15.1,23.5-12.7,23.5-9z"/>
		</g>
	</g>
</g>
<g>
	<g transform="translate(80.524014, 86.429614)">
		<g>
			<path class="st0" d="M28.9-14.5v8.4c0,1.4,0.4,3.3,2.1,3.3c0.4,0,0.5-0.1,0.6-0.1v-0.2c-0.1,0.1-0.3,0.1-0.4,0.1
				c-1,0-1-1.3-1-2.3v-9.2h1.7v-0.2h-1.7v-4h-0.2c0,1.3,0,4-2,4v0.2H28.9z"/>
		</g>
	</g>
</g>
<g>
	<g transform="translate(87.119553, 86.429614)">
		<g>
			<path class="st0" d="M29.4-3.4v0.2h5.1v-0.2h-0.9c-0.4,0-1-0.2-1-1.2v-10.5h-0.2c0,0.6-0.7,1.3-2.1,1.3v0.2c1,0,1,0.7,1,1.1v7.8
				c0,1.1-0.6,1.2-1,1.2H29.4z M32-15.9c0.5,0,1-0.4,1-1c0-0.5-0.4-1-1-1s-1,0.4-1,1C31-16.3,31.5-15.9,32-15.9z"/>
		</g>
	</g>
</g>
<g>
	<g transform="translate(93.846375, 86.429614)">
		<g>
			<path class="st0" d="M38.4-2.8c3.4,0,6.2-2.8,6.2-6.2s-2.8-6.2-6.2-6.2s-6.2,2.8-6.2,6.2S35-2.8,38.4-2.8z M33.1-10.4
				c0-2.2,1.7-3.9,4.2-3.9c3.8,0,6.4,3.2,6.4,6.7c0,2.2-1.7,3.9-4.2,3.9C35.6-3.7,33.1-6.8,33.1-10.4z"/>
		</g>
	</g>
</g>
<g>
	<g transform="translate(107.020694, 86.429614)">
		<g>
			<path class="st0" d="M36.1-3.2h5.1v-0.2h-0.9c-0.4,0-1-0.2-1-1.2v-6.4c0.1-1.2,1.2-3.8,3.4-3.8c0.9,0,1.2,0.9,1.2,1.8v8.4
				c0,1.1-0.6,1.2-1,1.2H42v0.2h5.1v-0.2h-0.9c-0.4,0-1-0.2-1-1.2v-7.7c0-2.1-1-2.8-2.5-2.8c-1.6,0-2.8,1.3-3.4,2.9v-2.9H39
				c0,0.6-0.7,1.3-2.1,1.3v0.2c1,0,1,0.7,1,1.1v7.8c0,1.1-0.6,1.2-1,1.2h-0.9V-3.2z"/>
		</g>
	</g>
</g>
<g>
	<g transform="translate(118.167408, 86.429614)">
		<g>
			<path class="st0" d="M45.7-2.8c1.8,0,3.3-0.8,4.2-1.9v0.1c0,0.7,0.3,1.5,1.2,1.5h1.5v-0.2c-1.1,0-1.4-0.5-1.4-1.8v-5
				c0-2.8-1.7-4.9-5.2-4.9c-1.5,0-2.7,0.4-3.6,1.3c0.6,0.3,1.1,0.7,1.6,1.2c-2.2,0.7-3.5,2.6-3.5,4.8C40.4-5.1,42.5-2.8,45.7-2.8z
				 M44.2-12.4c1.2,1.2,1.9,2.7,1.9,4.5c0,1.4-0.9,2.2-1.2,2.3c0,0,0.1,0.1,0.2,0.1c0.9,0,1.6-0.9,1.6-2.3c0-2.2-1.3-3.6-2.2-4.6
				c0.4-0.2,0.9-0.2,1.4-0.2c2.4,0,3.6,1,4.1,1.9v5.6C49-3.8,47.3-3,45.7-3c-2.5,0-4.2-2.1-4.2-4.8C41.6-9.9,42.5-11.7,44.2-12.4z
				 M46-14.9c2.4,0,3.8,1.8,3.8,3.7c-0.9-1-2.3-1.7-4.1-1.7c-0.6,0-1.1,0.1-1.7,0.2c-0.4-0.4-0.4-0.7-0.4-0.9
				C43.6-14.3,44.3-14.9,46-14.9z"/>
		</g>
	</g>
</g>
<g>
	<g transform="translate(130.641546, 86.429614)">
		<g>
			<path class="st0" d="M43.9-3.4v0.2H49v-0.2h-0.9c-0.4,0-1-0.2-1-1.2V-23h-0.2c0,0.6-0.7,1.3-2.1,1.3v0.2c1,0,1,0.7,1,1.1v15.7
				c0,1.1-0.6,1.2-1,1.2H43.9z"/>
		</g>
	</g>
</g>
<g>
	<g transform="translate(137.368362, 86.429614)">
	</g>
</g>
<g>
	<g transform="translate(144.955816, 86.429614)">
		<g>
			<path class="st0" d="M48.9-3.4v0.2h5.6v-0.2h-0.9c-0.6,0-1.3-0.4-1.3-1.5c0-0.7,0.2-1.8,0.5-3.2h7.6c0.6,2.2,1.1,3.9,1.1,4.1
				c0,0.5-0.3,0.5-0.6,0.5h-0.9v0.2h5.2v-0.2h-0.7c-1,0-1.5-1.1-1.9-1.9C62.2-6,57.9-20.5,57.2-23h-0.2C56.1-20.5,51.8-6,51.5-5.3
				c-0.3,0.8-0.9,1.9-1.9,1.9H48.9z M54.7-14.7c0.7-2.4,1.4-4.7,1.8-5.9l-0.1-0.2c0,0,2.4,7.5,3.9,12.5h-7.4
				C53.3-10.2,54-12.5,54.7-14.7z"/>
		</g>
	</g>
</g>
<g>
	<g transform="translate(160.46407, 86.429614)">
		<g>
			<path class="st0" d="M60.6-2.8c3.7,0,6.2-2.5,6.2-6.2h-0.2c0,3.2-2.1,5.2-5,5.2c-3.7,0-6.1-2.7-6.1-6.1c0-0.4,0-0.7,0.1-1h10.4
				c0,0-0.2-4.3-5.3-4.3c-3.7,0-6.2,2.5-6.2,6.2S56.9-2.8,60.6-2.8z M55.6-11.1c0.5-2.2,2.4-3.8,4.7-3.8c2.2,0,4.2,1.6,4.3,3.8H55.6
				z"/>
		</g>
	</g>
</g>
<g>
	<g transform="translate(172.763161, 86.429614)">
		<g>
			<path class="st0" d="M58.4-2.8h0.2v-0.9c0-0.1,0-0.3,0.2-0.3c0.3,0,1.5,1.2,3.2,1.2c2.1,0,3.3-1.6,3.3-3.4c0-3.4-5.8-3.8-5.8-6.6
				c0-1.3,1-2.1,2.3-2.1c1.2,0,3,0.5,3,2.7v0.9H65v-3.9h-0.2c0,0.3-0.3,0.4-0.5,0.4c-1,0-1.5-0.4-2.6-0.4c-1.7,0-3.1,1.1-3.1,2.6
				c0,3.7,6,4.2,6,7C64.5-4.3,63.6-3,62-3c-2.2,0-3.4-2.4-3.4-3.7v-0.9h-0.2V-2.8z"/>
		</g>
	</g>
</g>
<g>
	<g transform="translate(181.619693, 86.429614)">
		<g>
			<path class="st0" d="M62.6-14.5v8.4c0,1.4,0.4,3.3,2.1,3.3c0.4,0,0.5-0.1,0.6-0.1v-0.2c-0.1,0.1-0.3,0.1-0.4,0.1
				c-1,0-1-1.3-1-2.3v-9.2h1.7v-0.2h-1.7v-4h-0.2c0,1.3,0,4-2,4v0.2H62.6z"/>
		</g>
	</g>
</g>
<g>
	<g transform="translate(188.215226, 86.429614)">
		<g>
			<path class="st0" d="M68.2-3.2v-0.2h-0.9c-0.4,0-1-0.2-1-1.2v-7c0.5-1.7,1.8-3.2,3.3-3.2c1.4,0,1.3,1.6,1.3,2v8.2
				c0,1.1-0.6,1.2-1,1.2H69v0.2h5.1v-0.2h-0.9c-0.4,0-1-0.2-1-1.2v-7.7c0-1.6-0.7-2.8-2.6-2.8c-1.3,0-2.7,1-3.3,2.8V-23h-0.2
				c0,0.6-0.7,1.3-2.1,1.3v0.2c1,0,1,0.7,1,1.1v15.7c0,1.1-0.6,1.2-1,1.2h-0.9v0.2H68.2z"/>
		</g>
	</g>
</g>
<g>
	<g transform="translate(199.376521, 86.429614)">
		<g>
			<path class="st0" d="M73.6-2.8c3.7,0,6.2-2.5,6.2-6.2h-0.2c0,3.2-2.1,5.2-5,5.2c-3.7,0-6.1-2.7-6.1-6.1c0-0.4,0-0.7,0.1-1h10.4
				c0,0-0.2-4.3-5.3-4.3c-3.7,0-6.2,2.5-6.2,6.2S69.9-2.8,73.6-2.8z M68.5-11.1c0.5-2.2,2.4-3.8,4.7-3.8c2.2,0,4.2,1.6,4.3,3.8H68.5
				z"/>
		</g>
	</g>
</g>
<g>
	<g transform="translate(211.675612, 86.429614)">
		<g>
			<path class="st0" d="M72.6-14.5v8.4c0,1.4,0.4,3.3,2.1,3.3c0.4,0,0.5-0.1,0.6-0.1v-0.2c-0.1,0.1-0.3,0.1-0.4,0.1
				c-1,0-1-1.3-1-2.3v-9.2h1.7v-0.2h-1.7v-4h-0.2c0,1.3,0,4-2,4v0.2H72.6z"/>
		</g>
	</g>
</g>
<g>
	<g transform="translate(218.271145, 86.429614)">
		<g>
			<path class="st0" d="M79.9-2.8c3.7,0,6.2-2.5,6.2-6.2h-0.2c0,3.2-2.1,5.2-5,5.2c-3.7,0-6.1-2.7-6.1-6.1c0-0.4,0-0.7,0.1-1h10.4
				c0,0-0.2-4.3-5.3-4.3c-3.7,0-6.2,2.5-6.2,6.2S76.2-2.8,79.9-2.8z M74.8-11.1c0.5-2.2,2.4-3.8,4.7-3.8c2.2,0,4.2,1.6,4.3,3.8H74.8
				z"/>
		</g>
	</g>
</g>
<g>
	<g transform="translate(6.829362, 126.186322)">
		<g>
			<path class="st0" d="M2.9,10.5h0.3l7.3-20.2h-0.3L2.9,10.5z"/>
		</g>
	</g>
</g>
<g>
	<g transform="translate(15.977648, 126.186322)">
		<g>
			<path class="st0" d="M5.9,10.5h0.3l7.3-20.2h-0.3L5.9,10.5z"/>
		</g>
	</g>
</g>
<g>
	<g transform="translate(25.125934, 126.186322)">
	</g>
</g>
<g>
	<g transform="translate(32.71339, 126.186322)">
		<g>
			<path class="st0" d="M21.8,5.4c0,3.2-1.9,4.8-4.3,4.8c-2.7,0-5.2-1-5.2-5.1V0.3h-0.2v10.1h0.2c0.3-0.3,0.6-0.4,1.1-0.4
				c1,0,2.2,0.4,4.1,0.4c3.7,0,5.5-2.4,5.5-5.1c0-2.7-1.5-4.1-3.4-5.2l3.5-9.9H23C22.6-9.1,22.1-9,21.7-9c-1.2,0-2-0.8-4.5-0.8
				c-2.8,0-5.2,1.5-5.2,4.2C12.1,0.9,21.8,0,21.8,5.4z M17.3-9.6c6.4,0,3.4,5.8,2.2,9.6c-2.8-1.6-6.2-2.6-6.2-6.1
				C13.2-7.3,14-9.6,17.3-9.6z"/>
		</g>
	</g>
</g>
<g>
	<g transform="translate(45.24588, 126.186322)">
		<g>
			<path class="st0" d="M22.2,10.5c3.7,0,6.2-2.5,6.2-6.2h-0.2c0,3.2-2.1,5.2-5,5.2c-3.7,0-6.1-2.7-6.1-6.1c0-0.4,0-0.7,0.1-1h10.4
				c0,0-0.2-4.3-5.3-4.3c-3.7,0-6.2,2.5-6.2,6.2S18.5,10.5,22.2,10.5z M17.2,2.2c0.5-2.2,2.4-3.8,4.7-3.8c2.2,0,4.2,1.6,4.3,3.8
				H17.2z"/>
		</g>
	</g>
</g>
<g>
	<g transform="translate(57.544975, 126.186322)">
		<g>
			<path class="st0" d="M24.7,10.1V9.8h-0.9c-0.4,0-1-0.2-1-1.2V2.1c0.1-1.2,1.2-3.8,3.4-3.8c0.9,0,1.2,0.9,1.2,1.8v8.4
				c0,1.1-0.6,1.2-1,1.2h-0.9v0.2h5.1V9.8h-0.9c-0.4,0-1-0.2-1-1.2V2.1c0.1-1.2,1.2-3.8,3.4-3.8c0.9,0,1.2,0.9,1.2,1.8v8.4
				c0,1.1-0.6,1.2-1,1.2h-0.9v0.2h5.1V9.8h-0.9c-0.4,0-1-0.2-1-1.2V0.9c0-2.1-1-2.8-2.5-2.8c-1.6,0-2.8,1.3-3.4,2.9V0.9
				c0-2.1-1-2.8-2.5-2.8c-1.6,0-2.8,1.3-3.4,2.9v-2.9h-0.2c0,0.6-0.7,1.3-2.1,1.3v0.2c1,0,1,0.7,1,1.1v7.8c0,1.1-0.6,1.2-1,1.2h-0.9
				v0.2H24.7z"/>
		</g>
	</g>
</g>
<g>
	<g transform="translate(73.111582, 126.186322)">
		<g>
			<path class="st0" d="M30.7,10.5c1.8,0,3.3-0.8,4.2-1.9v0.1c0,0.7,0.3,1.5,1.2,1.5h1.5V9.8c-1.1,0-1.4-0.5-1.4-1.8V3
				c0-2.8-1.7-4.9-5.2-4.9c-1.5,0-2.7,0.4-3.6,1.3c0.6,0.3,1.1,0.7,1.6,1.2c-2.2,0.7-3.5,2.6-3.5,4.8C25.3,8.2,27.4,10.5,30.7,10.5z
				 M29.2,0.9C30.3,2.1,31,3.6,31,5.4c0,1.4-0.9,2.2-1.2,2.3c0,0,0.1,0.1,0.2,0.1c0.9,0,1.6-0.9,1.6-2.3c0-2.2-1.3-3.6-2.2-4.6
				c0.4-0.2,0.9-0.2,1.4-0.2c2.4,0,3.6,1,4.1,1.9v5.6c-0.9,1.3-2.6,2.1-4.1,2.1c-2.5,0-4.2-2.1-4.2-4.8C26.5,3.4,27.5,1.6,29.2,0.9z
				 M31-1.7c2.4,0,3.8,1.8,3.8,3.7c-0.9-1-2.3-1.7-4.1-1.7c-0.6,0-1.1,0.1-1.7,0.2c-0.4-0.4-0.4-0.7-0.4-0.9
				C28.6-1.1,29.3-1.7,31-1.7z"/>
		</g>
	</g>
</g>
<g>
	<g transform="translate(85.585725, 126.186322)">
		<g>
			<path class="st0" d="M28.9,10.1H34V9.8h-0.9c-0.4,0-1-0.2-1-1.2V2.1c0.1-1.2,1.2-3.8,3.4-3.8c0.9,0,1.2,0.9,1.2,1.8v8.4
				c0,1.1-0.6,1.2-1,1.2h-0.9v0.2h5.1V9.8H39c-0.4,0-1-0.2-1-1.2V0.9c0-2.1-1-2.8-2.5-2.8c-1.6,0-2.8,1.3-3.4,2.9v-2.9h-0.2
				c0,0.6-0.7,1.3-2.1,1.3v0.2c1,0,1,0.7,1,1.1v7.8c0,1.1-0.6,1.2-1,1.2h-0.9V10.1z"/>
		</g>
	</g>
</g>
<g>
	<g transform="translate(96.732445, 126.186322)">
		<g>
			<path class="st0" d="M34.3-1.3v8.4c0,1.4,0.4,3.3,2.1,3.3c0.4,0,0.5-0.1,0.6-0.1v-0.2c-0.1,0.1-0.3,0.1-0.4,0.1c-1,0-1-1.3-1-2.3
				v-9.2h1.7v-0.2h-1.7v-4h-0.2c0,1.3,0,4-2,4v0.2H34.3z"/>
		</g>
	</g>
</g>
<g>
	<g transform="translate(103.327983, 126.186322)">
		<g>
			<path class="st0" d="M34.8,9.8v0.2h5.1V9.8H39c-0.4,0-1-0.2-1-1.2V-1.9h-0.2c0,0.6-0.7,1.3-2.1,1.3v0.2c1,0,1,0.7,1,1.1v7.8
				c0,1.1-0.6,1.2-1,1.2H34.8z M37.4-2.6c0.5,0,1-0.4,1-1c0-0.5-0.4-1-1-1c-0.5,0-1,0.4-1,1C36.4-3.1,36.9-2.6,37.4-2.6z"/>
		</g>
	</g>
</g>
<g>
	<g transform="translate(110.0548, 126.186322)">
		<g>
			<path class="st0" d="M37.7,4.3c0,3.7,2.5,6.2,6.2,6.2c3.7,0,6.2-2.5,6.2-6.2h-0.2c0,3.2-2.1,5.2-5,5.2c-3.7,0-6.1-2.7-6.1-6.1
				c0-2.8,2.4-5.1,5.2-5.1c3.6,0,4.3,2,3.8,3.5L46,6.3h0.2l2.9-8.2H49c0,0-0.4,0.4-1.2,0.4c-1.2,0-1.8-0.4-4-0.4
				C40.1-1.9,37.7,0.6,37.7,4.3z"/>
		</g>
	</g>
</g>
<g>
	<g transform="translate(122.93738, 126.186322)">
	</g>
</g>
<g>
	<g transform="translate(130.524833, 126.186322)">
		<g>
			<path class="st0" d="M44.1-9.2H45c0.4,0,1,0.2,1,1.2V8.6c0,1.1-0.6,1.2-1,1.2h-0.9v0.2h5.2V9.8h-0.9c-0.4,0-1-0.2-1-1.2V1.4h3.5
				c2.4,0,6.1-1.3,6.1-5.3c0-4.2-3.8-5.5-6.2-5.5h-6.7V-9.2z M47.4-9.2c1.1,0,1.3,0,2.7,0c3.6,0,5.4,2.4,5.4,5.3
				c0,3.5-1.8,5.1-5.5,5.1h-2.7V-9.2z"/>
		</g>
	</g>
</g>
<g>
	<g transform="translate(143.538696, 126.186322)">
		<g>
			<path class="st0" d="M48.2,10.1h5.1V9.8h-0.9c-0.4,0-1-0.2-1-1.2V2.1c0.1-1.2,1.1-3.8,3-3.8c1.8,0,2.5,1.8,1.7,3.9l-1.4,4H55
				l2.9-8.2h-0.2c0,0-0.1,0.4-0.8,0.4c-1.2,0-1.3-0.4-2.4-0.4c-1.5,0-2.5,1.3-3,2.9v-2.9h-0.2c0,0.6-0.7,1.3-2.1,1.3v0.2
				c1,0,1,0.7,1,1.1v7.8c0,1.1-0.6,1.2-1,1.2h-0.9V10.1z"/>
		</g>
	</g>
</g>
<g>
	<g transform="translate(153.576788, 126.186322)">
		<g>
			<path class="st0" d="M58.3,10.5c3.4,0,6.2-2.8,6.2-6.2s-2.8-6.2-6.2-6.2s-6.2,2.8-6.2,6.2S54.9,10.5,58.3,10.5z M53,2.9
				C53,0.7,54.7-1,57.2-1c3.8,0,6.4,3.2,6.4,6.7c0,2.2-1.7,3.9-4.2,3.9C55.5,9.6,53,6.4,53,2.9z"/>
		</g>
	</g>
</g>
<g>
	<g transform="translate(166.751107, 126.186322)">
		<g>
			<path class="st0" d="M56,9.8v0.2h1.4c1.4,0,1.8-0.8,1.8-1.5c0.7,0.9,2,1.9,4.7,1.9c3.5,0,5.8-2.9,5.8-6.2s-2.2-6.1-6.1-6.1
				c-2.4,0-3.7,0.9-4.4,1.8v-9.7h-0.2c0,0.6-0.7,1.3-2.1,1.3v0.2c1,0,1,0.7,1,1.1V8.6c0,1.1-0.6,1.2-1,1.2H56z M59.2,7.6V0.3
				c1.2-1.7,3.2-1.8,3.9-1.8c2.9,0,5.2,2.5,5.2,5.8c0,3.2-2.4,5.8-5.2,5.8c-0.6,0-2.7-0.1-3.9-1.8C59.2,8,59.2,7.8,59.2,7.6z"/>
		</g>
	</g>
</g>
<g>
	<g transform="translate(180.494323, 126.186322)">
		<g>
			<path class="st0" d="M60.6,9.8v0.2h5.1V9.8h-0.9c-0.4,0-1-0.2-1-1.2V-9.8h-0.2c0,0.6-0.7,1.3-2.1,1.3v0.2c1,0,1,0.7,1,1.1V8.6
				c0,1.1-0.6,1.2-1,1.2H60.6z"/>
		</g>
	</g>
</g>
<g>
	<g transform="translate(187.22114, 126.186322)">
		<g>
			<path class="st0" d="M69.5,10.5c3.7,0,6.2-2.5,6.2-6.2h-0.2c0,3.2-2.1,5.2-5,5.2c-3.7,0-6.1-2.7-6.1-6.1c0-0.4,0-0.7,0.1-1h10.4
				c0,0-0.2-4.3-5.3-4.3c-3.7,0-6.2,2.5-6.2,6.2S65.8,10.5,69.5,10.5z M64.5,2.2C65,0,66.9-1.7,69.2-1.7c2.2,0,4.2,1.6,4.3,3.8H64.5
				z"/>
		</g>
	</g>
</g>
<g>
	<g transform="translate(199.52023, 126.186322)">
		<g>
			<path class="st0" d="M72,10.1V9.8h-0.9c-0.4,0-1-0.2-1-1.2V2.1c0.1-1.2,1.2-3.8,3.4-3.8c0.9,0,1.2,0.9,1.2,1.8v8.4
				c0,1.1-0.6,1.2-1,1.2h-0.9v0.2h5.1V9.8H77c-0.4,0-1-0.2-1-1.2V2.1c0.1-1.2,1.2-3.8,3.4-3.8c0.9,0,1.2,0.9,1.2,1.8v8.4
				c0,1.1-0.6,1.2-1,1.2h-0.9v0.2h5.1V9.8h-0.9c-0.4,0-1-0.2-1-1.2V0.9c0-2.1-1-2.8-2.5-2.8c-1.6,0-2.8,1.3-3.4,2.9V0.9
				c0-2.1-1-2.8-2.5-2.8c-1.6,0-2.8,1.3-3.4,2.9v-2.9h-0.2c0,0.6-0.7,1.3-2.1,1.3v0.2c1,0,1,0.7,1,1.1v7.8c0,1.1-0.6,1.2-1,1.2h-0.9
				v0.2H72z"/>
		</g>
	</g>
</g>
<g>
	<g transform="translate(215.086831, 126.186322)">
	</g>
</g>
<g>
	<g transform="translate(222.674285, 126.186322)">
		<g>
			<path class="st0" d="M85.1,5.4c0,3.2-1.9,4.8-4.3,4.8c-2.7,0-5.2-1-5.2-5.1V0.3h-0.2v10.1h0.2c0.3-0.3,0.6-0.4,1.1-0.4
				c1,0,2.2,0.4,4.1,0.4c3.7,0,5.5-2.4,5.5-5.1c0-2.7-1.5-4.1-3.4-5.2l3.5-9.9h-0.2C85.9-9.1,85.5-9,85-9c-1.2,0-2-0.8-4.5-0.8
				c-2.8,0-5.2,1.5-5.2,4.2C75.4,0.9,85.1,0,85.1,5.4z M80.6-9.6C87-9.6,84-3.7,82.8,0c-2.8-1.6-6.2-2.6-6.2-6.1
				C76.6-7.3,77.3-9.6,80.6-9.6z"/>
		</g>
	</g>
</g>
<g>
	<g transform="translate(235.20678, 126.186322)">
		<g>
			<path class="st0" d="M85.5,10.5c3.4,0,6.2-2.8,6.2-6.2s-2.8-6.2-6.2-6.2s-6.2,2.8-6.2,6.2S82.1,10.5,85.5,10.5z M80.2,2.9
				c0-2.2,1.7-3.9,4.2-3.9c3.8,0,6.4,3.2,6.4,6.7c0,2.2-1.7,3.9-4.2,3.9C82.7,9.6,80.2,6.4,80.2,2.9z"/>
		</g>
	</g>
</g>
<g>
	<g transform="translate(248.381098, 126.186322)">
		<g>
			<path class="st0" d="M83.2,9.8v0.2h5.1V9.8h-0.9c-0.4,0-1-0.2-1-1.2V-9.8h-0.2c0,0.6-0.7,1.3-2.1,1.3v0.2c1,0,1,0.7,1,1.1V8.6
				c0,1.1-0.6,1.2-1,1.2H83.2z"/>
		</g>
	</g>
</g>
<g>
	<g transform="translate(255.107926, 126.186322)">
		<g>
			<path class="st0" d="M85-1.3c1,0,1.7,1.8,2.1,3.3c0.4,1.6,2.3,8.4,2.3,8.4h0.1c0.6-2.4,1.3-5.1,2.1-7.5c0.1-0.4,0.2-0.7,0.3-0.9
				c0.5-1.5,1-3.3,2-3.3h0.4v-0.2h-3.4v0.2h0.4c1,0,0.7,1.8,0.3,3.2c-0.1,0.2-0.1,0.5-0.2,0.9c-0.4,1.6-1.1,4-1.3,4.7
				c-0.2-0.9-1.1-4.1-1.5-5.5c-0.2-0.5-0.3-1.2-0.3-1.8c-0.1-1,0-1.5,0.7-1.5h0.4v-0.2h-4.5v0.2H85z"/>
		</g>
	</g>
</g>
<g>
	<g transform="translate(264.168689, 126.186322)">
		<g>
			<path class="st0" d="M95.2,10.5c3.7,0,6.2-2.5,6.2-6.2h-0.2c0,3.2-2.1,5.2-5,5.2c-3.7,0-6.1-2.7-6.1-6.1c0-0.4,0-0.7,0.1-1h10.4
				c0,0-0.2-4.3-5.3-4.3c-3.7,0-6.2,2.5-6.2,6.2S91.5,10.5,95.2,10.5z M90.1,2.2c0.5-2.2,2.4-3.8,4.7-3.8c2.2,0,4.2,1.6,4.3,3.8
				H90.1z"/>
		</g>
	</g>
</g>
<g>
	<g transform="translate(276.46778, 126.186322)">
		<g>
			<path class="st0" d="M92.5,10.1h5.1V9.8h-0.9c-0.4,0-1-0.2-1-1.2V2.1c0.1-1.2,1.1-3.8,3-3.8c1.8,0,2.5,1.8,1.7,3.9l-1.4,4h0.2
				l2.9-8.2H102c0,0-0.1,0.4-0.8,0.4c-1.2,0-1.3-0.4-2.4-0.4c-1.5,0-2.5,1.3-3,2.9v-2.9h-0.2c0,0.6-0.7,1.3-2.1,1.3v0.2
				c1,0,1,0.7,1,1.1v7.8c0,1.1-0.6,1.2-1,1.2h-0.9V10.1z"/>
		</g>
	</g>
</g>
<g>
	<g transform="translate(286.501834, 126.186322)">
	</g>
</g>
<g>
	<g transform="translate(294.089292, 126.186322)">
	</g>
</g>
<g>
	<g transform="translate(6.829362, 165.94303)">
		<g>
			<path class="st0" d="M2.9,23.7h0.3l7.3-20.2h-0.3L2.9,23.7z"/>
		</g>
	</g>
</g>
<g>
	<g transform="translate(15.977648, 165.94303)">
		<g>
			<path class="st0" d="M5.9,23.7h0.3l7.3-20.2h-0.3L5.9,23.7z"/>
		</g>
	</g>
</g>
<g>
	<g transform="translate(25.125934, 165.94303)">
	</g>
</g>
<g>
	<g transform="translate(32.71339, 165.94303)">
		<g>
			<path class="st0" d="M11.5,23.3H20c2.4,0,4.7-2,4.7-4.9c0-2.8-2.1-4.9-4.9-5.1c1.9-0.6,3.6-2.2,3.6-4.6c0-3.5-2.8-4.9-5.2-4.9
				h-6.7v0.2h0.9c0.4,0,1,0.2,1,1.2v16.5c0,1.1-0.6,1.2-1,1.2h-0.9V23.3z M14.8,13.6h3c4.1,0,5.5,3,5.5,4.9s-1.1,4.6-5.2,4.6h-3.3
				V13.6z M17.2,4.1c3.2,0,4.7,2.5,4.7,4.6c0,2.6-1.5,4.6-4.7,4.6h-2.4V4.1H17.2z"/>
		</g>
	</g>
</g>
<g>
	<g transform="translate(46.354502, 165.94303)">
		<g>
			<path class="st0" d="M21.8,23.7c1.8,0,3.3-0.8,4.2-1.9v0.1c0,0.7,0.3,1.5,1.2,1.5h1.5v-0.2c-1.1,0-1.4-0.5-1.4-1.8v-5
				c0-2.8-1.7-4.9-5.2-4.9c-1.5,0-2.7,0.4-3.6,1.3c0.6,0.3,1.1,0.7,1.6,1.2c-2.2,0.7-3.5,2.6-3.5,4.8C16.4,21.4,18.5,23.7,21.8,23.7
				z M20.2,14.1c1.2,1.2,1.9,2.7,1.9,4.5c0,1.4-0.9,2.2-1.2,2.3c0,0,0.1,0.1,0.2,0.1c0.9,0,1.6-0.9,1.6-2.3c0-2.2-1.3-3.6-2.2-4.6
				c0.4-0.2,0.9-0.2,1.4-0.2c2.4,0,3.6,1,4.1,1.9v5.6c-0.9,1.3-2.6,2.1-4.1,2.1c-2.5,0-4.2-2.1-4.2-4.8
				C17.6,16.6,18.6,14.8,20.2,14.1z M22.1,11.6c2.4,0,3.8,1.8,3.8,3.7c-0.9-1-2.3-1.7-4.1-1.7c-0.6,0-1.1,0.1-1.7,0.2
				c-0.4-0.4-0.4-0.7-0.4-0.9C19.7,12.2,20.4,11.6,22.1,11.6z"/>
		</g>
	</g>
</g>
<g>
	<g transform="translate(58.828646, 165.94303)">
		<g>
			<path class="st0" d="M20.4,23.7h0.2v-0.9c0-0.1,0-0.3,0.2-0.3c0.3,0,1.5,1.2,3.2,1.2c2.1,0,3.3-1.6,3.3-3.4
				c0-3.4-5.8-3.8-5.8-6.6c0-1.3,1-2.1,2.3-2.1c1.2,0,3,0.5,3,2.7v0.9H27v-3.9h-0.2c0,0.3-0.3,0.4-0.5,0.4c-1,0-1.5-0.4-2.6-0.4
				c-1.7,0-3.1,1.1-3.1,2.6c0,3.7,6,4.2,6,7c0,1.3-0.8,2.5-2.5,2.5c-2.2,0-3.4-2.4-3.4-3.7v-0.9h-0.2V23.7z"/>
		</g>
	</g>
</g>
<g>
	<g transform="translate(67.685183, 165.94303)">
		<g>
			<path class="st0" d="M29.7,23.7c3.7,0,6.2-2.5,6.2-6.2h-0.2c0,3.2-2.1,5.2-5,5.2c-3.7,0-6.1-2.7-6.1-6.1c0-0.4,0-0.7,0.1-1H35
				c0,0-0.2-4.3-5.3-4.3c-3.7,0-6.2,2.5-6.2,6.2S26,23.7,29.7,23.7z M24.6,15.4c0.5-2.2,2.4-3.8,4.7-3.8c2.2,0,4.2,1.6,4.3,3.8H24.6
				z"/>
		</g>
	</g>
</g>
<g>
	<g transform="translate(79.984278, 165.94303)">
		<g>
			<path class="st0" d="M33.4,23.7c2.7,0,4-1,4.7-1.9c0,0.7,0.3,1.5,1.2,1.5h1.5v-0.2c-1.1,0-1.4-0.5-1.4-1.8V3.5h-0.2
				c0,0.6-0.7,1.3-2.1,1.3V5c1,0,1,0.7,1,1.1v7c-0.7-0.9-2-1.8-4.4-1.8c-3.9,0-6.1,2.8-6.1,6.1C27.6,20.8,29.9,23.7,33.4,23.7z
				 M29,17.5c0-3.2,2.4-5.8,5.2-5.8c0.6,0,2.7,0.1,3.9,1.8l0,8c-1.1,1.7-3.2,1.8-3.9,1.8C31.4,23.3,29,20.7,29,17.5z"/>
		</g>
	</g>
</g>
<g>
	<g transform="translate(93.333651, 165.94303)">
	</g>
</g>
<g>
	<g transform="translate(100.92111, 165.94303)">
		<g>
			<path class="st0" d="M34,23.1v0.2h5.1v-0.2h-0.9c-0.4,0-1-0.2-1-1.2V11.3H37c0,0.6-0.7,1.3-2.1,1.3v0.2c1,0,1,0.7,1,1.1v7.8
				c0,1.1-0.6,1.2-1,1.2H34z M36.6,10.6c0.5,0,1-0.4,1-1c0-0.5-0.4-1-1-1c-0.5,0-1,0.4-1,1C35.6,10.2,36.1,10.6,36.6,10.6z"/>
		</g>
	</g>
</g>
<g>
	<g transform="translate(107.647926, 165.94303)">
		<g>
			<path class="st0" d="M36.3,23.3h5.1v-0.2h-0.9c-0.4,0-1-0.2-1-1.2v-6.4c0.1-1.2,1.2-3.8,3.4-3.8c0.9,0,1.2,0.9,1.2,1.8v8.4
				c0,1.1-0.6,1.2-1,1.2h-0.9v0.2h5.1v-0.2h-0.9c-0.4,0-1-0.2-1-1.2v-7.7c0-2.1-1-2.8-2.5-2.8c-1.6,0-2.8,1.3-3.4,2.9v-2.9h-0.2
				c0,0.6-0.7,1.3-2.1,1.3v0.2c1,0,1,0.7,1,1.1v7.8c0,1.1-0.6,1.2-1,1.2h-0.9V23.3z"/>
		</g>
	</g>
</g>
<g>
	<g transform="translate(118.79464, 165.94303)">
	</g>
</g>
<g>
	<g transform="translate(126.382094, 165.94303)">
		<g>
			<path class="st0" d="M42.7,23.3h5.2v-0.2H47c-0.4,0-1-0.2-1-1.2v-8.2h2.3c2.3,3.8,3.4,5.6,5.6,9.1c0.4,0.5,0.7,0.6,1.1,0.6
				c0.6,0,1.8,0,2.3,0v-0.2c-1.3,0-2-0.5-2.6-1.4c-1.9-2.9-3-4.9-5-8.1c2.3-0.1,4.9-1.9,4.9-4.9c0-3.5-2.8-4.9-5.2-4.9h-6.7v0.2h0.9
				c0.4,0,1,0.2,1,1.2v16.5c0,1.1-0.6,1.2-1,1.2h-0.9V23.3z M46,4.1c1.1,0,1,0,2.4,0c3.2,0,4.7,2.5,4.7,4.7c0,2.6-1.5,4.6-4.7,4.6
				H46V4.1z"/>
		</g>
	</g>
</g>
<g>
	<g transform="translate(140.635863, 165.94303)">
		<g>
			<path class="st0" d="M54,23.7c3.4,0,6.2-2.8,6.2-6.2s-2.8-6.2-6.2-6.2s-6.2,2.8-6.2,6.2S50.6,23.7,54,23.7z M48.7,16.2
				c0-2.2,1.7-3.9,4.2-3.9c3.8,0,6.4,3.2,6.4,6.7c0,2.2-1.7,3.9-4.2,3.9C51.2,22.8,48.7,19.7,48.7,16.2z"/>
		</g>
	</g>
</g>
<g>
	<g transform="translate(153.810182, 165.94303)">
		<g>
			<path class="st0" d="M52.2,17.5c0,3.7,2.5,6.2,6.2,6.2s6.2-2.5,6.2-6.2h-0.2c0,3.2-2.1,5.2-5,5.2c-3.7,0-6.1-2.7-6.1-6.1
				c0-2.8,2.4-5.1,5.2-5.1c3.6,0,4.3,2,3.8,3.5l-1.6,4.5h0.2l2.9-8.2h-0.2c0,0-0.4,0.4-1.2,0.4c-1.2,0-1.8-0.4-4-0.4
				C54.7,11.4,52.2,13.8,52.2,17.5z"/>
		</g>
	</g>
</g>
<g>
	<g transform="translate(166.692761, 165.94303)">
		<g>
			<path class="st0" d="M61.1,23.3v-0.2h-0.9c-0.4,0-1-0.2-1-1.2v-7c0.5-1.7,1.8-3.2,3.3-3.2c1.4,0,1.3,1.6,1.3,2v8.2
				c0,1.1-0.6,1.2-1,1.2h-0.9v0.2H67v-0.2h-0.9c-0.4,0-1-0.2-1-1.2v-7.7c0-1.6-0.7-2.8-2.6-2.8c-1.3,0-2.7,1-3.3,2.8V3.5h-0.2
				c0,0.6-0.7,1.3-2.1,1.3V5c1,0,1,0.7,1,1.1v15.7c0,1.1-0.6,1.2-1,1.2H56v0.2H61.1z"/>
		</g>
	</g>
</g>
<g>
	<g transform="translate(177.854056, 165.94303)">
		<g>
			<path class="st0" d="M66.4,23.7c3.7,0,6.2-2.5,6.2-6.2h-0.2c0,3.2-2.1,5.2-5,5.2c-3.7,0-6.1-2.7-6.1-6.1c0-0.4,0-0.7,0.1-1h10.4
				c0,0-0.2-4.3-5.3-4.3c-3.7,0-6.2,2.5-6.2,6.2S62.7,23.7,66.4,23.7z M61.4,15.4c0.5-2.2,2.4-3.8,4.7-3.8c2.2,0,4.2,1.6,4.3,3.8
				H61.4z"/>
		</g>
	</g>
</g>
<g>
	<g transform="translate(190.153158, 165.94303)">
		<g>
			<path class="st0" d="M64.2,23.7h0.2v-0.9c0-0.1,0-0.3,0.2-0.3c0.3,0,1.5,1.2,3.2,1.2c2.1,0,3.3-1.6,3.3-3.4
				c0-3.4-5.8-3.8-5.8-6.6c0-1.3,1-2.1,2.3-2.1c1.2,0,3,0.5,3,2.7v0.9h0.2v-3.9h-0.2c0,0.3-0.3,0.4-0.5,0.4c-1,0-1.5-0.4-2.6-0.4
				c-1.7,0-3.1,1.1-3.1,2.6c0,3.7,6,4.2,6,7c0,1.3-0.8,2.5-2.5,2.5c-2.2,0-3.4-2.4-3.4-3.7v-0.9h-0.2V23.7z"/>
		</g>
	</g>
</g>
<g>
	<g transform="translate(199.0097, 165.94303)">
		<g>
			<path class="st0" d="M68.4,12v8.4c0,1.4,0.4,3.3,2.1,3.3c0.4,0,0.5-0.1,0.6-0.1v-0.2c-0.1,0.1-0.3,0.1-0.4,0.1c-1,0-1-1.3-1-2.3
				V12h1.7v-0.2h-1.7v-4h-0.2c0,1.3,0,4-2,4V12H68.4z"/>
		</g>
	</g>
</g>
<g>
	<g transform="translate(205.605234, 165.94303)">
		<g>
			<path class="st0" d="M75.7,23.7c3.7,0,6.2-2.5,6.2-6.2h-0.2c0,3.2-2.1,5.2-5,5.2c-3.7,0-6.1-2.7-6.1-6.1c0-0.4,0-0.7,0.1-1h10.4
				c0,0-0.2-4.3-5.3-4.3c-3.7,0-6.2,2.5-6.2,6.2S72,23.7,75.7,23.7z M70.6,15.4c0.5-2.2,2.4-3.8,4.7-3.8c2.2,0,4.2,1.6,4.3,3.8H70.6
				z"/>
		</g>
	</g>
</g>
<g>
	<g transform="translate(217.904324, 165.94303)">
		<g>
			<path class="st0" d="M73,23.3h5.1v-0.2h-0.9c-0.4,0-1-0.2-1-1.2v-6.4c0.1-1.2,1.1-3.8,3-3.8c1.8,0,2.5,1.8,1.7,3.9l-1.4,4h0.2
				l2.9-8.2h-0.2c0,0-0.1,0.4-0.8,0.4c-1.2,0-1.3-0.4-2.4-0.4c-1.5,0-2.5,1.3-3,2.9v-2.9H76c0,0.6-0.7,1.3-2.1,1.3v0.2
				c1,0,1,0.7,1,1.1v7.8c0,1.1-0.6,1.2-1,1.2H73V23.3z"/>
		</g>
	</g>
</g>
<g>
	<g transform="translate(227.942427, 165.94303)">
		<g>
			<path class="st0" d="M77.6,23.3c0.1,0,0.3,0,0.4-0.1c0.1,0.2,0.1,0.3,0.1,0.5c0,0.6-0.4,1.3-0.9,1.5l0.1,0.2
				c1.5-0.5,2.1-4.3,0.3-4.3c-0.6,0-1.1,0.5-1.1,1C76.6,22.8,77,23.3,77.6,23.3z"/>
		</g>
	</g>
</g>
<g>
	<g transform="translate(232.933378, 165.94303)">
	</g>
</g>
<g>
	<g transform="translate(240.520831, 165.94303)">
		<g>
			<path class="st0" d="M80.8,4.1h0.9c0.4,0,1,0.2,1,1.2v16.5c0,1.1-0.6,1.2-1,1.2h-0.9v0.2h5.4v-0.2h-1.1c-1.1,0-2.2,0-2.2-5.9v-12
				l10.4,18.1h0.3v-18c0-1.1,0.6-1.2,1-1.2h0.9V3.9h-5.4v0.2h1.1c1,0,2.2,0,2.2,5.9v10.4L83.9,3.9h-3.2V4.1z"/>
		</g>
	</g>
</g>
<g>
	<g transform="translate(254.935056, 165.94303)">
		<g>
			<path class="st0" d="M85.6,3.9v0.2h0.8c1.2,0,1.9,1.1,2.3,1.8c2,3.8,2.3,4.6,3.9,7.9v8c0,1.1-0.6,1.2-1,1.2h-0.9v0.2h5.2v-0.2H95
				c-0.4,0-1-0.2-1-1.2v-8.1c0.9-1.9,3.5-7.2,3.8-7.8c0.4-0.8,1.1-1.8,2.3-1.8h0.8V3.9H95v0.2h1.3c0.6,0,1.1,0.3,1.1,0.8
				c0,1.2-2.5,6.4-3.6,8.5C93,11.5,90,5.8,90,4.8c0-0.5,0.3-0.8,0.9-0.8h0.8V3.9H85.6z"/>
		</g>
	</g>
</g>
<g>
	<g transform="translate(269.751658, 165.94303)">
	</g>
</g>
</svg>
