<?xml version="1.0" encoding="utf-8"?>
<!-- Generator: Adobe Illustrator 25.4.1, SVG Export Plug-In . SVG Version: 6.00 Build 0)  -->
<svg version="1.1" id="Layer_1" xmlns="http://www.w3.org/2000/svg" xmlns:xlink="http://www.w3.org/1999/xlink" x="0px" y="0px"
	 viewBox="0 0 107 108" style="enable-background:new 0 0 107 108;" xml:space="preserve">
<style type="text/css">
	.st0{fill:#FFFFFF;}
</style>
<g>
	<g transform="translate(151.169441, 207.63093)">
		<g>
			<path class="st0" d="M-144.5-109.1v0.4h23.6c10.1,0,14.3-8.3,14.3-16.3c0-7.6-6.4-14.4-6.4-24.5c0-3,1.2-5.6,3.6-7.8
				c-8,0-10.3,8.1-10.3,12.1c0,10.7,7.2,15.1,7.2,25.3c0,4.4-1.3,9.3-9.5,9.3c0,0-2.7,0.1-5.3,0.1c-6.2,0-6.9-4.6-6.9-8.8v-60.4
				c0-9.4-0.4-14.6,3.1-18.2v-0.4h-13.4v0.4c3.6,3.6,3.1,8.8,3.1,18.2v52.5C-141.3-117.9-140.9-112.7-144.5-109.1z"/>
		</g>
	</g>
</g>
<g>
	<g transform="translate(182.325785, 207.63093)">
		<g>
			<path class="st0" d="M-121.4-108.8v-0.4c-3.6-3.6-3.1-8.8-3.1-18.2v-46.8h-9.6v0.4c3.6,3.6,3.1,8.9,3.1,18.3v28.2
				c0,9.4,0.4,14.6-3.1,18.2v0.4H-121.4z M-132.2-183.6c0,2.5,2,4.6,4.5,4.6c2.5,0,4.5-2.1,4.5-4.6c0-2.4-2-4.5-4.5-4.5
				C-130.2-188-132.2-186-132.2-183.6z"/>
		</g>
	</g>
</g>
<g>
	<g transform="translate(194.546596, 207.63093)">
		<g>
			<path class="st0" d="M-122.7-135.2c2.1,11.6,5.6,26.2,13.2,26.4h2c5-22.7,9.2-42,14.7-67.2h-0.5c-1,1-2.3,1.8-4.9,1.8
				c-2.7,0-5.4-1.8-9.9-1.8c-4.9,0-8.5,2.6-8.5,7.8h0.4c1.7-1.7,3.1-2.2,4.9-2.2c3.2,0,5.2,2.2,8.8,2.2c3.9,0,6.6-2.3,6.6-2.3
				l-12.4,56.7c-3.9-0.6-6.4-10.2-8.4-21.5c-3.5-18.9-2.5-37-7.2-39h-7.9v0.4C-126.3-171.5-126.2-154.1-122.7-135.2z"/>
		</g>
	</g>
</g>
</svg>
