<?xml version="1.0" encoding="utf-8"?>
<!-- Generator: Adobe Illustrator 25.4.1, SVG Export Plug-In . SVG Version: 6.00 Build 0)  -->
<svg version="1.1" id="Layer_1" xmlns="http://www.w3.org/2000/svg" xmlns:xlink="http://www.w3.org/1999/xlink" x="0px" y="0px"
	 viewBox="0 0 163 113" style="enable-background:new 0 0 163 113;" xml:space="preserve">
<g>
	<g transform="translate(134.70852, 231.47398)">
		<g>
			<path d="M-81.3-124c28.9,0,48.2-21.6,48.2-48.2s-19.3-48.2-48.2-48.2c-28.9,0-48.2,21.6-48.2,48.2S-110.2-124-81.3-124z
				 M-122.8-172.2c0-26.1,16.7-47.1,41.4-47.1c24.7,0,41.3,21.1,41.3,47.1c0,26.2-16.6,47.1-41.3,47.1
				C-106.1-125.1-122.8-146.1-122.8-172.2z"/>
		</g>
	</g>
</g>
<g>
	<g transform="translate(177.228845, 231.47398)">
		<g>
			<path d="M-66.5-219.4c14.2,0,28.7,6.6,23.2,24l-18.6,52h1.2l27.7-77.1h-0.9c-1.4,1.9-3.6,3.9-7.3,3.9c-8.1,0-14.6-3.9-27-3.9
				c-30,0-47.1,21.6-47.1,48.2S-98.2-124-68.3-124s47.1-21.6,47.1-48.2h-1.1c0,26.9-18.2,47-44.3,47
				C-121.8-125.2-123-219.4-66.5-219.4z"/>
		</g>
	</g>
</g>
</svg>
