<?xml version="1.0" encoding="utf-8"?>
<!-- Generator: Adobe Illustrator 25.4.1, SVG Export Plug-In . SVG Version: 6.00 Build 0)  -->
<svg version="1.1" id="Layer_1" xmlns="http://www.w3.org/2000/svg" xmlns:xlink="http://www.w3.org/1999/xlink" x="0px" y="0px"
	 viewBox="0 0 334 163.5" style="enable-background:new 0 0 334 163.5;" xml:space="preserve">
<style type="text/css">
	.st0{fill:#FFFFFF;}
</style>
<g>
	<g transform="translate(76.433353, 242.158351)">
		<g>
			<path class="st0" d="M-57.4-90.2c5.2,0,8.7-3.5,8.7-8.7H-49c0,4.5-2.9,7.4-7.1,7.4c-5.2,0-8.6-3.8-8.6-8.6c0-0.5,0.1-1,0.1-1.4
				H-50c0,0-0.4-6.1-7.4-6.1c-5.2,0-8.7,3.5-8.7,8.7C-66.1-93.8-62.6-90.2-57.4-90.2z M-64.6-101.9c0.7-3.1,3.4-5.5,6.7-5.5
				c3.1,0,6,2.3,6,5.5H-64.6z"/>
		</g>
	</g>
</g>
<g>
	<g transform="translate(90.370152, 242.158351)">
		<g>
			<path class="st0" d="M-61.5-99c0,5.2,3.5,8.7,8.7,8.7S-44-93.8-44-99h-0.3c0,4.5-2.9,7.4-7.1,7.4c-5.2,0-8.6-3.8-8.6-8.6
				c0-4,3.3-7.2,7.4-7.2c5.1,0,6.1,2.9,5.3,4.9l-2.3,6.4h0.3l4.2-11.6h-0.3c0,0-0.6,0.6-1.6,0.6c-1.8,0-2.6-0.6-5.7-0.6
				C-58-107.7-61.5-104.2-61.5-99z"/>
		</g>
	</g>
</g>
<g>
	<g transform="translate(105.134058, 242.158351)">
		<g>
			<path class="st0" d="M-47.8-90.2c4.8,0,8.7-3.9,8.7-8.7c0-4.8-3.9-8.7-8.7-8.7c-4.8,0-8.7,3.9-8.7,8.7
				C-56.6-94.2-52.7-90.2-47.8-90.2z M-55.4-101c0-3.1,2.3-5.6,6-5.6c5.3,0,9.1,4.6,9.1,9.5c0,3.1-2.3,5.6-6,5.6
				C-51.9-91.5-55.4-96-55.4-101z"/>
		</g>
	</g>
</g>
<g>
	<g transform="translate(120.311517, 242.158351)">
		<g>
			<path class="st0" d="M-45.1-90.8v-0.3h-1.3c-0.5,0-1.4-0.2-1.4-1.8v-9.1c0.1-1.7,1.8-5.4,4.8-5.4c1.3,0,1.7,1.3,1.7,2.6v11.9
				c0,1.5-0.9,1.8-1.4,1.8H-44v0.3h7.2v-0.3H-38c-0.5,0-1.4-0.2-1.4-1.8v-9.1c0.1-1.7,1.8-5.4,4.8-5.4c1.3,0,1.7,1.3,1.7,2.6v11.9
				c0,1.5-0.9,1.8-1.4,1.8h-1.3v0.3h7.2v-0.3h-1.3c-0.5,0-1.4-0.2-1.4-1.8v-10.9c0-3-1.5-4-3.6-4c-2.2,0-3.9,1.9-4.8,4.2v-0.2
				c0-3-1.5-4-3.6-4c-2.2,0-3.9,1.9-4.8,4.2v-4.2h-0.3c0,0.8-1,1.9-3,1.9v0.3c1.4,0,1.4,1,1.4,1.6v11c0,1.5-0.9,1.8-1.4,1.8h-1.3
				v0.3H-45.1z"/>
		</g>
	</g>
</g>
<g>
	<g transform="translate(138.880127, 242.158351)">
		<g>
			<path class="st0" d="M-38.9-90.8v-0.3h-1.3c-0.5,0-1.4-0.2-1.4-1.8v-9.1c0.1-1.7,1.8-5.4,4.8-5.4c1.3,0,1.7,1.3,1.7,2.6v11.9
				c0,1.5-0.9,1.8-1.4,1.8h-1.3v0.3h7.2v-0.3h-1.3c-0.5,0-1.4-0.2-1.4-1.8v-9.1c0.1-1.7,1.8-5.4,4.8-5.4c1.3,0,1.7,1.3,1.7,2.6v11.9
				c0,1.5-0.9,1.8-1.4,1.8h-1.3v0.3h7.2v-0.3h-1.3c-0.5,0-1.4-0.2-1.4-1.8v-10.9c0-3-1.5-4-3.6-4c-2.2,0-3.9,1.9-4.8,4.2v-0.2
				c0-3-1.5-4-3.6-4c-2.2,0-3.9,1.9-4.8,4.2v-4.2h-0.3c0,0.8-1,1.9-3,1.9v0.3c1.4,0,1.4,1,1.4,1.6v11c0,1.5-0.9,1.8-1.4,1.8h-1.3
				v0.3H-38.9z"/>
		</g>
	</g>
</g>
<g>
	<g transform="translate(157.448736, 242.158351)">
		<g>
			<path class="st0" d="M-30.4-90.2c5.2,0,8.7-3.5,8.7-8.7H-22c0,4.5-2.9,7.4-7.1,7.4c-5.2,0-8.6-3.8-8.6-8.6c0-0.5,0.1-1,0.1-1.4
				h14.7c0,0-0.4-6.1-7.4-6.1c-5.2,0-8.7,3.5-8.7,8.7C-39.1-93.8-35.6-90.2-30.4-90.2z M-37.6-101.9c0.7-3.1,3.4-5.5,6.7-5.5
				c3.1,0,6,2.3,6,5.5H-37.6z"/>
		</g>
	</g>
</g>
<g>
	<g transform="translate(171.385535, 242.158351)">
		<g>
			<path class="st0" d="M-35.3-90.8h7.2v-0.3h-1.3c-0.5,0-1.4-0.2-1.4-1.8v-9.1c0.1-1.7,1.5-5.4,4.3-5.4c2.5,0,3.6,2.5,2.5,5.6
				l-2,5.7h0.3l4.2-11.6h-0.3c0,0-0.1,0.6-1.1,0.6c-1.8,0-1.9-0.6-3.4-0.6c-2.2,0-3.5,1.8-4.3,4.1v-4.1h-0.3c0,0.8-1,1.9-3,1.9v0.3
				c1.4,0,1.4,1,1.4,1.6v11c0,1.5-0.9,1.8-1.4,1.8h-1.3V-90.8z"/>
		</g>
	</g>
</g>
<g>
	<g transform="translate(182.117283, 242.158351)">
		<g>
			<path class="st0" d="M-30.9-99c0,5.2,3.5,8.7,8.7,8.7s8.7-3.5,8.7-8.7h-0.3c0,4.5-2.9,7.4-7.1,7.4c-5.2,0-8.6-3.8-8.6-8.6
				c0-4,3.3-7.2,7.4-7.2c5.1,0,6.1,2.9,5.3,4.9l-2.3,6.4h0.3l4.2-11.6h-0.3c0,0-0.6,0.6-1.6,0.6c-1.8,0-2.6-0.6-5.7-0.6
				C-27.4-107.7-30.9-104.2-30.9-99z"/>
		</g>
	</g>
</g>
<g>
	<g transform="translate(196.881196, 242.158351)">
		<g>
			<path class="st0" d="M-17.3-90.2c5.2,0,8.7-3.5,8.7-8.7h-0.3c0,4.5-2.9,7.4-7.1,7.4c-5.2,0-8.6-3.8-8.6-8.6c0-0.5,0.1-1,0.1-1.4
				h14.7c0,0-0.4-6.1-7.4-6.1c-5.2,0-8.7,3.5-8.7,8.7C-26-93.8-22.5-90.2-17.3-90.2z M-24.4-101.9c0.7-3.1,3.4-5.5,6.7-5.5
				c3.1,0,6,2.3,6,5.5H-24.4z"/>
		</g>
	</g>
</g>
<g>
	<g transform="translate(210.817995, 242.158351)">
	</g>
</g>
<g>
	<g transform="translate(218.075879, 242.158351)">
		<g>
			<path class="st0" d="M-19.8-79v0.3h7.2V-79h-1.3c-0.5,0-1.4-0.2-1.4-1.8v-12.4c0.9,1.3,2.7,2.9,6.8,2.9c5,0,8.2-4.1,8.2-8.8
				c0-4.8-3.1-8.7-8.6-8.7c-3.6,0-5.5,1.5-6.4,2.8v-2.8h-0.3c0,0.8-1,1.9-3,1.9v0.3c1.4,0,1.4,1,1.4,1.6v23.2c0,1.5-0.9,1.8-1.4,1.8
				H-19.8z M-15.2-93.8v-10.6c1.6-2.7,4.8-2.8,5.7-2.8c4.1,0,7.4,3.6,7.4,8.2s-3.4,8.2-7.4,8.2C-10.4-90.8-13.6-91-15.2-93.8z
				 M-16.1-96.8l0,0.1C-16.1-96.7-16.1-96.8-16.1-96.8z"/>
		</g>
	</g>
</g>
<g>
	<g transform="translate(234.204522, 242.158351)">
		<g>
			<path class="st0" d="M-14.4-91.1v0.3h7.2v-0.3h-1.3c-0.5,0-1.4-0.2-1.4-1.8v-26h-0.3c0,0.8-1,1.9-3,1.9v0.3c1.4,0,1.4,1,1.4,1.6
				v22.2c0,1.5-0.9,1.8-1.4,1.8H-14.4z"/>
		</g>
	</g>
</g>
<g>
	<g transform="translate(240.242422, 242.158351)">
		<g>
			<path class="st0" d="M-4-90.2c2.6,0,4.6-1.2,5.9-2.8v0.1c0,1,0.4,2.1,1.7,2.1h2.1v-0.3c-1.5,0-1.9-0.8-1.9-2.5v-7.1
				c0-4-2.4-7-7.4-7c-2.2,0-3.9,0.6-5.2,1.8c0.8,0.5,1.5,1,2.2,1.7c-3.1,0.9-5,3.6-5,6.8C-11.5-93.5-8.6-90.2-4-90.2z M-6.1-103.8
				c1.6,1.7,2.6,3.8,2.6,6.3c0,2-1.3,3.1-1.8,3.2c0.1,0.1,0.2,0.1,0.2,0.1c1.3,0,2.2-1.3,2.2-3.3c0-3.1-1.8-5.1-3.1-6.5
				c0.6-0.2,1.3-0.3,2-0.3c3.4,0,5,1.5,5.9,2.7v7.9c-1.3,1.9-3.6,3-5.9,3c-3.6,0-5.9-3-5.9-6.8C-9.9-100.3-8.5-102.8-6.1-103.8z
				 M-3.5-107.4c3.4,0,5.4,2.6,5.4,5.2c-1.3-1.5-3.3-2.4-5.8-2.4c-0.8,0-1.6,0.1-2.3,0.3c-0.6-0.6-0.6-1-0.6-1.3
				C-6.9-106.6-5.9-107.4-3.5-107.4z"/>
		</g>
	</g>
</g>
<g>
	<g transform="translate(254.427359, 242.158351)">
		<g>
			<path class="st0" d="M-5.3-106.9v12c0,2,0.5,4.6,2.9,4.6c0.6,0,0.7-0.1,0.8-0.1v-0.3c-0.2,0.1-0.4,0.1-0.6,0.1
				c-1.3,0-1.4-1.9-1.4-3.2v-13h2.4v-0.3h-2.4v-5.7h-0.3c0,1.9,0,5.7-2.9,5.7v0.3H-5.3z"/>
		</g>
	</g>
</g>
<g>
	<g transform="translate(260.279153, 242.158351)">
		<g>
			<path class="st0" d="M-5.7-91.1v0.3h7.2v-0.3H0.3c-0.5,0-1.4-0.2-1.4-1.8v-14h2.5v-0.3h-2.5v-2c0-3.8-0.8-4.2-0.8-5.7
				c0-1.8,1.5-3.9,4.7-3.9c3,0,4.4,2.6,2.8,7.2l-0.8,2.4H5l3.5-9.8H8.2c-0.4,1.2-0.7,1.5-1.1,1.5c-0.7,0-1.8-1.5-4.5-1.5
				c-4.6,0-5.7,3.9-5.7,6.6v5.1h-2.5v0.3H-3v14c0,1.5-0.9,1.8-1.4,1.8H-5.7z"/>
		</g>
	</g>
</g>
<g>
	<g transform="translate(271.383094, 242.158351)">
		<g>
			<path class="st0" d="M7.6-90.2c4.8,0,8.7-3.9,8.7-8.7c0-4.8-3.9-8.7-8.7-8.7c-4.8,0-8.7,3.9-8.7,8.7C-1.2-94.2,2.8-90.2,7.6-90.2
				z M0-101c0-3.1,2.3-5.6,6-5.6c5.3,0,9.1,4.6,9.1,9.5c0,3.1-2.3,5.6-6,5.6C3.6-91.5,0-96,0-101z"/>
		</g>
	</g>
</g>
<g>
	<g transform="translate(286.560554, 242.158351)">
		<g>
			<path class="st0" d="M3.1-90.8h7.2v-0.3H9c-0.5,0-1.4-0.2-1.4-1.8v-9.1c0.1-1.7,1.5-5.4,4.3-5.4c2.5,0,3.6,2.5,2.5,5.6l-2,5.7
				h0.3l4.2-11.6h-0.3c0,0-0.1,0.6-1.1,0.6c-1.8,0-1.9-0.6-3.4-0.6c-2.2,0-3.5,1.8-4.3,4.1v-4.1H7.3c0,0.8-1,1.9-3,1.9v0.3
				c1.4,0,1.4,1,1.4,1.6v11c0,1.5-0.9,1.8-1.4,1.8H3.1V-90.8z"/>
		</g>
	</g>
</g>
<g>
	<g transform="translate(297.29231, 242.158351)">
		<g>
			<path class="st0" d="M13.9-90.8v-0.3h-1.3c-0.5,0-1.4-0.2-1.4-1.8v-9.1c0.1-1.7,1.8-5.4,4.8-5.4c1.3,0,1.7,1.3,1.7,2.6v11.9
				c0,1.5-0.9,1.8-1.4,1.8H15v0.3h7.2v-0.3H21c-0.5,0-1.4-0.2-1.4-1.8v-9.1c0.1-1.7,1.8-5.4,4.8-5.4c1.3,0,1.7,1.3,1.7,2.6v11.9
				c0,1.5-0.9,1.8-1.4,1.8h-1.3v0.3h7.2v-0.3h-1.3c-0.5,0-1.4-0.2-1.4-1.8v-10.9c0-3-1.5-4-3.6-4c-2.2,0-3.9,1.9-4.8,4.2v-0.2
				c0-3-1.5-4-3.6-4c-2.2,0-3.9,1.9-4.8,4.2v-4.2h-0.3c0,0.8-1,1.9-3,1.9v0.3c1.4,0,1.4,1,1.4,1.6v11c0,1.5-0.9,1.8-1.4,1.8H6.6v0.3
				H13.9z"/>
		</g>
	</g>
</g>
<g>
	<g transform="translate(73.822633, 204.803547)">
		<g>
			<path class="st0" d="M-66.6-103.6v0.4h13.4v-0.4c-3.6-3.6-3.1-8.8-3.1-18.2v-58.8c0-8.9,2.3-10.4,9.4-10.4c5.6,0,10.7,1.9,10.7,8
				c0,12.9-19.2,15-19.2,25.3c0,3.1,2.2,6.1,5.4,6.1c4.3,0,5.6-2.7,9.8-2.7c3.8,0,6.1,3.4,6.1,7.5c0,6.4-7.2,14.6-7.2,26.5
				c0,6.1,2,14.7,9.8,18.9l5-6.9c-5.3-2.3-7.5-6.9-7.5-11c0-9.6,4.5-15.2,4.5-24.2c0-3.6-2-12.9-10.4-12.9c-4.9,0-6,2.8-9.2,2.8
				c-2.5,0-4.1-2.2-4.1-4.4c0-10.6,24.7-9.5,24.7-25.4c0-3.2-1.6-9.3-11.9-9.3h-26.1v0.4c3.6,3.6,3.1,8.8,3.1,18.2v52.5
				C-63.5-112.4-63-107.2-66.6-103.6z"/>
		</g>
	</g>
</g>
<g>
	<g transform="translate(106.523349, 204.803547)">
		<g>
			<path class="st0" d="M-54.8-135.9c0,17.6,7.7,34.5,23.2,34.5c8,0,12.3-4.7,12.3-10.7c0-8.9-10.5-8.2-8.5-13.9
				c-3,0-4.2,3.3-4.2,5.3c0,7.8,9.1,6.5,9.1,12c0,3.3-2.9,5.5-6.4,5.5c-13.6,0-18.6-18.6-18.6-32.7c0-12.4,4.1-32.7,14.3-32.7
				c6.1,0,7.4,7.7,7.4,14.3c0,16.2-8,26.3-15.3,27.8v0.8c13.8,0,22-11.6,22-26.4c0-8.1-2.9-18.3-13.7-18.3
				C-45.9-170.4-54.8-154.6-54.8-135.9z"/>
		</g>
	</g>
</g>
<g>
	<g transform="translate(137.14251, 204.803547)">
		<g>
			<path class="st0" d="M-38.2-129.7c2.1,11.6,5.6,26.2,13.3,26.4h2c5-22.7,9.2-42,14.7-67.2h-0.5c-1,1-2.3,1.8-4.9,1.8
				c-2.7,0-5.4-1.8-9.9-1.8c-4.9,0-8.5,2.6-8.5,7.8h0.4c1.7-1.7,3.1-2.2,4.9-2.2c3.2,0,5.2,2.2,8.8,2.2c3.9,0,6.6-2.3,6.6-2.3
				l-12.4,56.7c-3.9-0.6-6.4-10.2-8.4-21.5c-3.5-18.9-2.5-37-7.2-39h-7.9v0.4C-41.8-165.9-41.6-148.6-38.2-129.7z"/>
		</g>
	</g>
</g>
<g>
	<g transform="translate(166.418724, 204.803547)">
		<g>
			<path class="st0" d="M-23-103.3v-0.4c-3.6-3.6-3.1-8.8-3.1-18.2v-46.8h-9.6v0.4c3.6,3.6,3.1,8.9,3.1,18.3v28.2
				c0,9.4,0.4,14.6-3.1,18.2v0.4H-23z M-33.9-178c0,2.5,2,4.6,4.5,4.6c2.5,0,4.5-2.1,4.5-4.6c0-2.4-2-4.5-4.5-4.5
				C-31.9-182.5-33.9-180.4-33.9-178z"/>
		</g>
	</g>
</g>
<g>
	<g transform="translate(178.639535, 204.803547)">
		<g>
			<path class="st0" d="M-24.3-129.7c2.1,11.6,5.6,26.2,13.3,26.4h2c5-22.7,9.2-42,14.7-67.2H5.1c-1,1-2.3,1.8-4.9,1.8
				c-2.7,0-5.4-1.8-9.9-1.8c-4.9,0-8.5,2.6-8.5,7.8h0.4c1.7-1.7,3.1-2.2,4.9-2.2c3.2,0,5.2,2.2,8.8,2.2c3.9,0,6.6-2.3,6.6-2.3
				L-10-108.2c-3.9-0.6-6.4-10.2-8.4-21.5c-3.5-18.9-2.5-37-7.2-39h-7.9v0.4C-28-165.9-27.8-148.6-24.3-129.7z"/>
		</g>
	</g>
</g>
<g>
	<g transform="translate(207.915748, 204.803547)">
		<g>
			<path class="st0" d="M-8-101.5c10.4,0,13.7-11.9,15.6-22v20.2h9.6v-0.4c-3.6-3.6-3.1-8.8-3.1-18.2v-29.6
				c0-5.9-0.9-19.1-13.1-19.1c-4.7,0-11,3.8-14.9,3.8c-1.8,0-3.2-0.4-4.9-2.2h-0.4c0,5.2,3.6,7.8,8.5,7.8c8.2,0,12.1-6.7,15.8-6.7
				c3,0,2.5,5.8,2.5,10.7v2.3c-0.4,3-2.6,8.1-6.1,8.1c-4.4,0-5.8-3.7-9.4-3.7c-8.7,0-13.1,13.7-13.1,24.5
				C-21-115.3-18.3-101.5-8-101.5z M-14-127.3c0-13.2,1.1-20,3-20c2.4,0,5,7.2,9.9,7.2c4.5,0,7.9-6.6,8.8-10.6v18.1
				c-1.3,11.3-5.5,26.3-13.6,26.3C-12.1-106.3-14-118.5-14-127.3z"/>
		</g>
	</g>
</g>
<g>
	<g transform="translate(239.206375, 204.803547)">
		<g>
			<path class="st0" d="M-11.5-192.4c3.6,3.6,3.1,8.8,3.1,18.2v52.5c0,9.4,0.4,14.6-3.1,18.2v0.4H1.2v-0.4
				c-3.6-3.6-3.1-8.8-3.1-18.2v-52.5c0-9.4-0.4-14.6,3.1-18.2v-0.4h-12.7V-192.4z"/>
		</g>
	</g>
</g>
</svg>
