<?xml version="1.0" encoding="utf-8"?>
<!-- Generator: Adobe Illustrator 25.4.1, SVG Export Plug-In . SVG Version: 6.00 Build 0)  -->
<svg version="1.1" id="Layer_1" xmlns="http://www.w3.org/2000/svg" xmlns:xlink="http://www.w3.org/1999/xlink" x="0px" y="0px"
	 viewBox="0 0 440 136" style="enable-background:new 0 0 440 136;" xml:space="preserve">
<style type="text/css">
	.st0{fill:#FFFFFF;}
</style>
<g>
	<g transform="translate(28.864843, 211.434669)">
		<g>
			<path class="st0" d="M-5.4-85.8c4.8,0,9.4-1.5,12.9-4c1.3,1.1,2.4,2,3.3,2.7c1.9,1.5,3,1.2,7.3,1.2v-0.4c-1,0-2,0.1-3-0.5
				c-1.2-0.7-3.2-2.4-5.7-4.6c2.2-2.2,3.6-4.8,3.6-7.6c0-4.7-3.6-7.6-7.7-7.6c-1.5,0-2.6,0.3-3.4,0.7l7.7-9.3l-0.3-0.3l-11.5,13.7
				c-3.2-2.8-5.8-5.1-7.7-7c0.7-0.2,1.4-0.3,2-0.4c2.6-0.6,10.7-1.7,10.7-8.4c0-3-3-7.1-9.5-7.1c-5.6,0-10.3,3.2-10.3,8.4
				c0,2.6,1.6,5.2,4,7.9c-5.6,2.4-9.1,5.2-9.1,10.8C-22.1-89.2-13.6-85.8-5.4-85.8z M-19.4-97.9c0-4.7,3.1-7.9,6.8-9.6
				c2.8,3,6.6,6.2,10.3,9.3c3.4,2.9,6.7,5.8,9.3,8.1c-3.3,2.3-7.7,3.7-12.3,3.7C-12.4-86.4-19.4-91.3-19.4-97.9z M-15.4-117.4
				c0.1-3.2,2.7-6.5,8.6-6.5c5.1,0,6.8,4.1,6.8,6.9c0,6-7.1,7.7-10.3,8.2C-14.1-112.7-15.5-115-15.4-117.4z M-1.9-101.2l2.5-3.1
				c0.8-1,2.4-1.7,4.6-1.7c3.4,0,7.2,2.2,7.2,7.3c0,2.6-1.3,5.1-3.4,7.1c-2.6-2.2-5.6-5-8.9-7.8C-0.6-100.1-1.3-100.7-1.9-101.2z"/>
		</g>
	</g>
</g>
<g>
	<g transform="translate(62.300686, 211.434669)">
	</g>
</g>
<g>
	<g transform="translate(72.171146, 211.434669)">
		<g>
			<path class="st0" d="M-8.8-86.5H4.1c11.7,0,19.5-8.4,19.5-18.8c0-10.3-7.8-18.8-19.5-18.8H-8.8v0.4h1.7c0.7,0,1.9,0.3,1.9,2.4
				v31.8c0,2.1-1.2,2.4-1.9,2.4h-1.7V-86.5z M4.1-123.6c10,0,16.7,8.2,16.7,18.3C20.8-95.1,14.1-87,4.1-87h-6.5v-36.6H4.1z"/>
		</g>
	</g>
</g>
<g>
	<g transform="translate(98.15493, 211.434669)">
		<g>
			<path class="st0" d="M-0.2-86.5h10V-87H8.1c-0.7,0-1.9-0.3-1.9-2.4v-31.8c0-2.1,1.2-2.4,1.9-2.4h1.7v-0.4h-10v0.4h1.7
				c0.7,0,1.9,0.3,1.9,2.4v31.8c0,2.1-1.2,2.4-1.9,2.4h-1.7V-86.5z"/>
		</g>
	</g>
</g>
<g>
	<g transform="translate(107.350493, 211.434669)">
		<g>
			<path class="st0" d="M34.8-94.2c0,5.5-6.2,8-11,8c-22.3,0-22.8-38.1,0-38.1c5.7,0,11.6,2.7,9.4,9.7l-2.1,5.9H16.1v0.4
				c1.2,0,11.4,0,12.6,0c0.8,0,1.5,0,2.1,0.1l-5.2,14.6h0.5l5.3-14.6c3.4,0.5,3.4,2.3,3.4,6.3V-94.2z M37.3-124.8H37
				c-0.6,0.8-1.5,1.6-3,1.6c-3.3,0-5.9-1.6-10.9-1.6C11-124.8,4-116,4-105.3C4-94.5,11-85.8,23.1-85.8c4.7,0,8.6-1.3,11.7-3.6v2.8
				h2.6v-18.9c0-2.3,0.7-2.9,3.4-2.9v-0.4h-9.3L37.3-124.8z"/>
		</g>
	</g>
</g>
<g>
	<g transform="translate(136.652552, 211.434669)">
		<g>
			<path class="st0" d="M12.7-86.5h10V-87H21c-0.7,0-1.9-0.3-1.9-2.4v-31.8c0-2.1,1.2-2.4,1.9-2.4h1.7v-0.4h-10v0.4h1.7
				c0.7,0,1.9,0.3,1.9,2.4v31.8c0,2.1-1.2,2.4-1.9,2.4h-1.7V-86.5z"/>
		</g>
	</g>
</g>
<g>
	<g transform="translate(145.848114, 211.434669)">
		<g>
			<path class="st0" d="M15.6-112.4h0.5v-5.1c0-4.3,2.7-5.9,4.9-5.9h4.2v34c0,2.1-1.2,2.4-1.9,2.4h-1.7v0.4h10V-87h-1.7
				c-0.7,0-1.9-0.3-1.9-2.4v-34h4.2c2.2,0,4.9,1.5,4.9,5.9v5.1h0.5v-12.4H37c0,0.4-0.3,0.8-1,0.8H17.1c-0.7,0-1-0.3-1-0.8h-0.5
				V-112.4z"/>
		</g>
	</g>
</g>
<g>
	<g transform="translate(163.761181, 211.434669)">
		<g>
			<path class="st0" d="M21.7-87v0.4h10.8v-0.4h-1.7c-1.2,0-2.6-0.8-2.6-2.8c0-1.3,0.4-3.5,1-6.1h14.6c1.2,4.2,2.1,7.4,2.1,8
				c0,1-0.7,1-1.2,1h-1.7v0.4H53V-87h-1.4c-1.9,0-3-2.1-3.6-3.6c-0.6-1.3-8.9-29.3-10.4-34.2h-0.4c-1.5,4.9-9.9,32.9-10.5,34.2
				C26.1-89.1,25-87,23.1-87H21.7z M32.9-108.7c1.4-4.7,2.8-9,3.5-11.4l-0.1-0.4c0,0,4.6,14.5,7.4,24.2H29.3
				C30.2-100,31.5-104.5,32.9-108.7z"/>
		</g>
	</g>
</g>
<g>
	<g transform="translate(188.901329, 211.434669)">
		<g>
			<path class="st0" d="M30.1-124v0.4h1.7c0.7,0,1.9,0.3,1.9,2.4v31.8c0,2.1-1.2,2.4-1.9,2.4h-1.7v0.4h21c0.9,0,1.2,0.3,1.1,0.8h0.5
				l2.5-14.7h-0.4c-0.6,2.6-1.9,13.5-11,13.5h-7.3v-34.2c0-2.1,1.2-2.4,1.9-2.4h1.7v-0.4H30.1z"/>
		</g>
	</g>
</g>
<g>
	<g transform="translate(208.810968, 211.434669)">
	</g>
</g>
<g>
	<g transform="translate(218.681428, 211.434669)">
		<g>
			<path class="st0" d="M40-86.5h12.9c11.7,0,19.5-8.4,19.5-18.8c0-10.3-7.8-18.8-19.5-18.8H40v0.4h1.7c0.7,0,1.9,0.3,1.9,2.4v31.8
				c0,2.1-1.2,2.4-1.9,2.4H40V-86.5z M52.9-123.6c10,0,16.7,8.2,16.7,18.3c0,10.2-6.7,18.3-16.7,18.3h-6.5v-36.6H52.9z"/>
		</g>
	</g>
</g>
<g>
	<g transform="translate(244.665203, 211.434669)">
		<g>
			<path class="st0" d="M48.7-124v0.4h1.7c0.7,0,1.9,0.3,1.9,2.4v31.8c0,2.1-1.2,2.4-1.9,2.4h-1.7v0.5h20c1.9,0,3.1,0,3.7,0.8h0.4
				v-19.5h-0.4v9.3c0,7.9-3.2,9-7.7,9h-9.6v-23.2h1.3c3.6,0,5.2,2.4,5.2,5.8v5.6H62v-15.9h-0.4c0,2.2-0.2,4-3.5,4h-3v-12.9h8.9
				c4,0,8,1.8,5.7,8.9l-3.4,9.4h0.5l7-19.5h-0.4c-0.6,0.8-1.6,0.8-3.1,0.8H48.7z"/>
		</g>
	</g>
</g>
<g>
	<g transform="translate(265.193519, 211.434669)">
		<g>
			<path class="st0" d="M75.4-95.5c0,6.3-3.8,9.3-8.3,9.3c-5.2,0-10-1.9-10-9.8v-9.3h-0.4v19.5h0.4c0.5-0.6,1.2-0.8,2.1-0.8
				c1.9,0,4.3,0.8,7.8,0.8c7.1,0,10.7-4.5,10.7-9.8c0-5.3-3-8-6.5-10.1l6.8-19.1h-0.4c-0.7,1.4-1.6,1.6-2.4,1.6
				c-2.2,0-3.8-1.6-8.6-1.6c-5.4,0-10,2.8-10,8.2C56.6-104.2,75.4-105.8,75.4-95.5z M66.7-124.3c12.4,0,6.6,11.2,4.2,18.5
				c-5.4-3.1-11.9-5-11.9-11.8C58.9-119.9,60.3-124.3,66.7-124.3z"/>
		</g>
	</g>
</g>
<g>
	<g transform="translate(284.596999, 211.434669)">
		<g>
			<path class="st0" d="M62-86.5h10V-87h-1.7c-0.7,0-1.9-0.3-1.9-2.4v-31.8c0-2.1,1.2-2.4,1.9-2.4H72v-0.4H62v0.4h1.7
				c0.7,0,1.9,0.3,1.9,2.4v31.8c0,2.1-1.2,2.4-1.9,2.4H62V-86.5z"/>
		</g>
	</g>
</g>
<g>
	<g transform="translate(293.792561, 211.434669)">
		<g>
			<path class="st0" d="M96.9-94.2c0,5.5-6.2,8-11,8c-22.3,0-22.8-38.1,0-38.1c5.7,0,11.6,2.7,9.4,9.7l-2.1,5.9H78.3v0.4
				c1.2,0,11.4,0,12.6,0c0.8,0,1.5,0,2.1,0.1l-5.2,14.6h0.5l5.3-14.6c3.4,0.5,3.4,2.3,3.4,6.3V-94.2z M99.5-124.8h-0.4
				c-0.6,0.8-1.5,1.6-3,1.6c-3.3,0-5.9-1.6-10.9-1.6c-12.1,0-19.1,8.7-19.1,19.5c0,10.8,6.9,19.5,19.1,19.5c4.7,0,8.6-1.3,11.7-3.6
				v2.8h2.6v-18.9c0-2.3,0.7-2.9,3.4-2.9v-0.4h-9.3L99.5-124.8z"/>
		</g>
	</g>
</g>
<g>
	<g transform="translate(323.094621, 211.434669)">
		<g>
			<path class="st0" d="M74.8-123.6h1.7c0.7,0,1.9,0.3,1.9,2.4v31.8c0,2.1-1.2,2.4-1.9,2.4h-1.7v0.4h10.4V-87h-2.1
				c-2,0-4.2,0.1-4.2-11.4v-23.1l20.1,35h0.5v-34.7c0-2.1,1.2-2.4,1.9-2.4h1.7v-0.4H92.9v0.4H95c2,0,4.2-0.1,4.2,11.4v20L80.9-124
				h-6.1V-123.6z"/>
		</g>
	</g>
</g>
<g>
	<g transform="translate(35.198714, 173.526449)">
		<g>
			<path class="st0" d="M-21-99.2h9.5v-0.3c-2.5-2.5-2.2-6.2-2.2-12.9v-18c1.2-6.3,5.7-10.9,12-10.9c2.9,0,4.8,0.6,6.9,2v-5.8
				c-1.4-0.6-2.4-0.9-4.4-0.9c-6.6,0-12.1,5.5-14.5,11.9v-18.6c0,0-0.3-8.1,5.1-8.1c5.2,0,7.9,4.2,13.7,4.2c3.5,0,6-2.3,6-6h-0.3
				c-1.2,1.2-2.2,1.5-3.5,1.5c-3.2,0-6.4-2.8-10.7-2.8c-9.1,0-15.5,8.2-15.5,17.2v34.4c0,6.7,0.3,10.3-2.2,12.9V-99.2z"/>
		</g>
	</g>
</g>
<g>
	<g transform="translate(60.200151, 173.526449)">
		<g>
			<path class="st0" d="M-12.7-111.9c0,7.1,5.2,14,11.7,14c4.2,0,6.2-0.6,9.8-5.3v4h7.4v-0.3c-2.5-2.5-2.2-6.2-2.2-12.9v-37.2
				c0-6.7-0.3-10.3,2.2-12.9v-0.3H6.7v0.3c2.5,2.5,2.2,6.2,2.2,12.9v43.1c-0.7,2.6-3.8,5.4-6.7,5.4c-5.8,0-10.9-8.9-10.9-16
				c0-8,7-15.9,7-29.6c0-6-1.1-11-4.1-16h-5.8c4.6,8.6,5.9,13.9,5.9,24.2C-5.7-125.8-12.7-121.4-12.7-111.9z"/>
		</g>
	</g>
</g>
<g>
	<g transform="translate(83.728115, 173.526449)">
		<g>
			<path class="st0" d="M-4.8-99.4v0.3h16.7c7.2,0,10.1-5.9,10.1-11.5c0-5.4-4.6-10.2-4.6-17.4c0-2.1,0.8-3.9,2.5-5.5
				c-5.6,0-7.3,5.8-7.3,8.6c0,7.6,5.1,10.7,5.1,17.9c0,3.1-0.9,6.6-6.7,6.6c0,0-1.9,0.1-3.7,0.1c-4.4,0-4.9-3.2-4.9-6.2v-42.8
				c0-6.7-0.3-10.3,2.2-12.9v-0.3h-9.5v0.3c2.5,2.5,2.2,6.2,2.2,12.9v37.2C-2.6-105.6-2.3-101.9-4.8-99.4z"/>
		</g>
	</g>
</g>
<g>
	<g transform="translate(105.782618, 173.526449)">
		<g>
			<path class="st0" d="M2.5-99.4v0.3h16.7c7.2,0,10.1-5.9,10.1-11.5c0-5.4-4.6-10.2-4.6-17.4c0-2.1,0.8-3.9,2.5-5.5
				c-5.6,0-7.3,5.8-7.3,8.6c0,7.6,5.1,10.7,5.1,17.9c0,3.1-0.9,6.6-6.7,6.6c0,0-1.9,0.1-3.7,0.1c-4.4,0-4.9-3.2-4.9-6.2v-42.8
				c0-6.7-0.3-10.3,2.2-12.9v-0.3H2.5v0.3c2.5,2.5,2.2,6.2,2.2,12.9v37.2C4.7-105.6,5.1-101.9,2.5-99.4z"/>
		</g>
	</g>
</g>
<g>
	<g transform="translate(127.837121, 173.526449)">
	</g>
</g>
<g>
	<g transform="translate(142.096493, 173.526449)">
		<g>
			<path class="st0" d="M26.5-97.9c8.2,0,13.9-8.7,13.9-18.6c0-19-22.2-26.1-22.2-36.9c0-2,1.8-7.2,4.9-7.2c4.3,0,9,4,12.2,4
				c3.6,0,5.6-3,5.5-6h-0.3c-0.5,0.7-1.6,1.3-3.1,1.3c-4.9,0-6.5-2.6-10.5-2.6c-4.3,0-12.2,5.4-12.2,14.1
				c0,11.2,21.3,18.1,21.3,35.7c0,6.9-2.9,14.8-9.8,14.8c-4.8,0-7-2.4-7-8.9c0-5.5,3.5-8.2,3.1-13.7c-0.2-3-2.6-6.7-6-6.7
				c-0.9,0-1.2,0.1-1.7,0.5v0.3c1.3,0.7,2.5,3.1,2.5,5.5c0,5.1-2.6,7.6-2.6,12.6C14.6-104,17.9-97.9,26.5-97.9z"/>
		</g>
	</g>
</g>
<g>
	<g transform="translate(163.62815, 173.526449)">
		<g>
			<path class="st0" d="M20.5-156.5h0.3c1.4-1.5,3.8-2.8,6.5-2.8c6.4,0,7.8,2.8,15.4,2.8c-8.4,3.3-9.8,10.5-9.8,18.6v25.6
				c0,6.7,0.3,10.3-2.2,12.9v0.3h9.5v-0.3c-2.5-2.5-2.2-6.2-2.2-12.9v-28.1c0-14.4,6.3-15,11.5-19c2.1-1.6,2.3-3.2,2.1-4.4h-0.3
				c-1.7,2.5-5.3,2.5-7.5,2.5c-4.1,0-8.3-2.5-14.1-2.5C24.7-163.8,21.4-160.9,20.5-156.5z"/>
		</g>
	</g>
</g>
<g>
	<g transform="translate(187.013521, 173.526449)">
		<g>
			<path class="st0" d="M29.6-112c0,4.8,1.1,10,1.8,12.9h5.8c-1-3.7-2-7.2-2-13.8c0-10,3.4-21.4,13.8-21.4c1.6,0,3.1,0.4,4.2,1.3
				v20.7c0,6.7,0.3,10.3-2.2,12.9v0.3h9.5v-0.3c-2.5-2.5-2.2-6.2-2.2-12.9v-37.2c0-6.7-0.3-10.3,2.2-12.9v-0.3H39.6
				c-5.6,0-8.6,2.1-8.6,6.5c0,7.8,8.5,11,8.5,16.5C39.5-133.1,29.6-125.7,29.6-112z M41.9-161.3h7.2c4.7,0,4.1,2.7,4.1,8.4v15
				c-1-0.4-2-0.7-3-0.7c-6.7,0-10.5,6.7-12.1,9.4c1.1-3,3-5.8,3-9.6c0-6.4-4.8-10.3-4.8-17.2C36.3-158.8,37.7-161.3,41.9-161.3z"/>
		</g>
	</g>
</g>
<g>
	<g transform="translate(212.062485, 173.526449)">
		<g>
			<path class="st0" d="M56.5-98c7.5,0,12.3-7.4,12.3-15.2c0-5.6-5.3-9.6-5.3-13.8c0-0.9,0.2-1.4,0.5-2c-2.7,0-4.4,2.8-4.4,5.8
				c0,6,6.3,9.9,6.1,15c-0.2,4.5-4.1,7.9-7.9,7.9c-9.4,0-15.2-17.1-15.2-35.2c0-9.3,3.3-25.2,7.9-25.2c4.3,0,6.5,4,12.2,4
				c3.5,0,6-2.3,6-6h-0.3c-1.2,1.2-2.2,1.5-3.5,1.5c-2.5,0-5.3-2.8-8.6-2.8c-11,0-18.5,13.8-18.5,33.5C38-110.6,46.2-98,56.5-98z"/>
		</g>
	</g>
</g>
<g>
	<g transform="translate(237.111437, 173.526449)">
		<g>
			<path class="st0" d="M46.3-99.2h9.5v-0.3c-2.5-2.5-2.2-6.2-2.2-12.9v-37.2c0-6.7-0.3-10.3,2.2-12.9v-0.3h-9.5v0.3
				c2.5,2.5,2.2,6.2,2.2,12.9v37.2c0,6.7,0.3,10.3-2.2,12.9V-99.2z M54.2-137.8c0,2.2,1.5,4.3,3.8,4.3c3,0,3.9-1.9,7-1.9
				c2.7,0,4.3,2.4,4.3,5.3c0,4.5-5.1,10.3-5.1,18.8c0,4.3,1.4,10.4,6.9,13.4l3.6-4.9c-3.7-1.6-5.3-4.9-5.3-7.8
				c0-6.8,3.2-10.8,3.2-17.1c0-2.5-1.4-9.1-7.4-9.1c-3.5,0-4.2,2-6.5,2c-1.8,0-2.9-1.5-2.9-3.1c0-7,17.5-8.2,17.5-20
				c0-1.9-0.5-3.7-1.5-4.6h-6.1c0,0,2.2,1.1,2.2,5.6C67.8-147.8,54.2-145,54.2-137.8z"/>
		</g>
	</g>
</g>
<g>
	<g transform="translate(260.259148, 173.526449)">
	</g>
</g>
<g>
	<g transform="translate(274.518509, 173.526449)">
		<g>
			<path class="st0" d="M61-149.4v37.1c0,6.7,0.3,10.3-2.2,12.9v0.2c8.7,0,2.2,0.1,6.2,0.1c5.6,0.3,8.3,1.3,12,1.3
				c6.5,0,10.5-6.3,10.5-13.1c0-7.8-2.8-13.9-2.8-19.8c0-5.9,2.8-12,2.8-19.8c0-6.8-4-13.1-10.5-13.1c-4.1,0-7.8,1.2-11,1.2h-7.2
				v0.3C61.3-159.8,61-156,61-149.4z M66-156.5c0-3.9,2.4-4.6,5.8-4.6c5.3,0,10.8,3,10.8,10.1c0,7.4-3,13.6-3,20.2
				c0,6.5,3,12.8,3,20.2c0,7.1-5.5,10.1-10.8,10.1c-3.1,0-5.7-1.7-5.7-5.8c0-2.7-0.1-0.9-0.1-6v-37.1C66.1-154.6,66-152.8,66-156.5z
				"/>
		</g>
	</g>
</g>
<g>
	<g transform="translate(297.951407, 173.526449)">
		<g>
			<path class="st0" d="M67.2-130.3c0,19.8,8.2,32.5,18.6,32.5c7.5,0,12.3-7.4,12.3-15.1c0-5.6-5.3-9.6-5.3-13.8
				c0-0.9,0.2-1.4,0.5-2c-2.7,0-4.4,2.8-4.4,5.8c0,6,6.3,10,6.1,15c-0.3,4.5-4.1,7.9-7.9,7.9c-7.2,0-12.2-10-14.2-22.8v0.1
				c-1.6-9.7,3.6-17.8,12-17.8c2.8,0,4.8,0.6,6.9,2v-5.8c-1.4-0.6-2.4-0.9-4.4-0.9c-7.5,0-13.7,7.1-15.3,14.7
				c-0.1-1.5-0.1-3.1-0.1-4.6c0-9.3,3.3-25.3,7.9-25.3c4.3,0,6.5,4,12.2,4c3.5,0,6-2.3,6-6h-0.2c-1.2,1.2-2.2,1.5-3.5,1.5
				c-2.5,0-5.3-2.8-8.6-2.8C74.7-163.9,67.2-150.1,67.2-130.3z"/>
		</g>
	</g>
</g>
<g>
	<g transform="translate(323.950985, 173.526449)">
		<g>
			<path class="st0" d="M79.6-146.1c0,15-3.9,15.9-3.9,25.4c0,7.1,7.2,17.2,13.9,22.9h0.3c1.3-2.2,14-17.8,14-35.6
				c0-10.5-3.2-15.3-3.2-19.9c0-4.7,2.3-6.5,5.3-9.4l-0.4-0.4c-0.8,0.7-2.3,0.9-3.8,0.9c-4.2,0-5.5-1.7-8.4-1.7c-3.6,0-6.5,3-6.5,6
				H87c0.5-0.7,1.6-1.7,3.1-1.7c2,0,3.9,1.5,6.8,1.5c1.1,0,2.8-0.3,3.7-0.8c-2.5,3.3-4,6.1-4,9.4c0,6.6,3.3,12.4,3.3,22.8
				c0,10.3-3.9,16.9-8.8,23.5c-5.5-4.1-12.5-15.4-12.5-23.3c0-6.3,5.1-14.2,5.1-24.2c0-6-1-8-3.5-12h-5.8
				C79.2-154,79.6-150,79.6-146.1z"/>
		</g>
	</g>
</g>
</svg>
